<?xml version="1.0" standalone="no"?>
<!DOCTYPE svg PUBLIC "-//W3C//DTD SVG 20010904//EN"
 "http://www.w3.org/TR/2001/REC-SVG-20010904/DTD/svg10.dtd">
<svg version="1.0" xmlns="http://www.w3.org/2000/svg"
 width="2544.000000pt" height="2544.000000pt" viewBox="0 0 2544.000000 2544.000000"
 preserveAspectRatio="xMidYMid meet">
<metadata>
Created by potrace 1.14, written by Peter Selinger 2001-2017
</metadata>
<g transform="translate(0.000000,2544.000000) scale(0.100000,-0.100000)"
fill="#000000" stroke="none">
<path d="M28 25433 c12 -2 30 -2 40 0 9 3 -1 5 -23 4 -22 0 -30 -2 -17 -4z"/>
<path d="M528 25433 c161 -2 422 -2 580 0 158 1 26 2 -293 2 -319 0 -448 -1
-287 -2z"/>
<path d="M1638 25433 c101 -2 263 -2 360 0 97 1 15 2 -183 2 -198 0 -278 -1
-177 -2z"/>
<path d="M2483 25433 c103 -2 271 -2 375 0 103 1 18 2 -188 2 -206 0 -291 -1
-187 -2z"/>
<path d="M3512 25433 c153 -2 403 -2 555 0 153 1 28 2 -277 2 -305 0 -430 -1
-278 -2z"/>
<path d="M4437 25433 c18 -2 50 -2 70 0 21 2 7 4 -32 4 -38 0 -55 -2 -38 -4z"/>
<path d="M5353 25433 c445 -2 1169 -2 1610 0 441 1 78 2 -808 2 -885 0 -1246
-1 -802 -2z"/>
<path d="M8133 25433 c125 -2 329 -2 455 0 125 1 22 2 -228 2 -250 0 -353 -1
-227 -2z"/>
<path d="M9228 25433 c184 -2 481 -2 660 0 180 1 30 2 -333 2 -363 0 -510 -1
-327 -2z"/>
<path d="M10378 25433 c7 -3 16 -2 19 1 4 3 -2 6 -13 5 -11 0 -14 -3 -6 -6z"/>
<path d="M10453 25433 c26 -2 67 -2 90 0 23 2 2 3 -48 3 -49 0 -68 -1 -42 -3z"/>
<path d="M10643 25433 c9 -2 25 -2 35 0 9 3 1 5 -18 5 -19 0 -27 -2 -17 -5z"/>
<path d="M10753 25433 c15 -2 39 -2 55 0 15 2 2 4 -28 4 -30 0 -43 -2 -27 -4z"/>
<path d="M10873 25433 c15 -2 37 -2 50 0 12 2 0 4 -28 4 -27 0 -38 -2 -22 -4z"/>
<path d="M11238 25433 c127 -2 337 -2 465 0 127 1 23 2 -233 2 -256 0 -360 -1
-232 -2z"/>
<path d="M12068 25433 c50 -2 134 -2 185 0 50 1 9 3 -93 3 -102 0 -143 -2 -92
-3z"/>
<path d="M12388 25433 c6 -2 18 -2 25 0 6 3 1 5 -13 5 -14 0 -19 -2 -12 -5z"/>
<path d="M12458 25433 c18 -2 45 -2 60 0 15 2 0 4 -33 4 -33 0 -45 -2 -27 -4z"/>
<path d="M12578 25433 c7 -3 16 -2 19 1 4 3 -2 6 -13 5 -11 0 -14 -3 -6 -6z"/>
<path d="M12718 25433 c17 -2 47 -2 65 0 17 2 3 4 -33 4 -36 0 -50 -2 -32 -4z"/>
<path d="M13043 25433 c115 -2 299 -2 410 0 111 1 18 2 -208 2 -225 0 -316 -1
-202 -2z"/>
<path d="M13728 25433 c28 -2 76 -2 105 0 28 2 5 3 -53 3 -58 0 -81 -1 -52 -3z"/>
<path d="M14223 25433 c170 -2 444 -2 610 0 166 1 28 2 -308 2 -335 0 -471 -1
-302 -2z"/>
<path d="M15623 25433 c251 -2 663 -2 915 0 251 1 45 2 -458 2 -503 0 -709 -1
-457 -2z"/>
<path d="M17828 25433 c452 -2 1192 -2 1645 0 452 1 82 2 -823 2 -905 0 -1275
-1 -822 -2z"/>
<path d="M20398 25433 c56 -2 148 -2 205 0 56 1 10 3 -103 3 -113 0 -159 -2
-102 -3z"/>
<path d="M21893 25433 c654 -2 1720 -2 2370 0 650 1 116 2 -1188 2 -1303 0
-1835 -1 -1182 -2z"/>
<path d="M12366 25373 c-4 -4 -66 -8 -139 -10 -73 -1 -184 -7 -247 -13 -63 -6
-153 -12 -200 -15 -110 -5 -620 -57 -700 -71 -85 -15 -159 -26 -315 -48 -224
-32 -360 -57 -455 -83 -30 -8 -70 -14 -87 -14 -18 1 -33 -3 -33 -9 0 -6 -4 -8
-10 -5 -5 3 -23 -1 -40 -10 -17 -9 -45 -14 -63 -12 -18 2 -48 -2 -67 -11 -38
-15 -179 -48 -272 -63 -32 -5 -74 -16 -94 -24 -20 -8 -48 -15 -63 -15 -14 0
-80 -18 -146 -41 -66 -22 -140 -44 -165 -49 -25 -4 -58 -13 -75 -18 -138 -48
-593 -192 -606 -192 -8 0 -38 -11 -64 -25 -27 -13 -63 -27 -79 -31 -17 -3 -35
-10 -41 -14 -5 -4 -35 -15 -65 -25 -30 -10 -68 -23 -85 -30 -16 -8 -61 -24
-100 -36 -38 -12 -74 -25 -80 -29 -5 -4 -28 -13 -49 -20 -22 -7 -67 -27 -100
-45 -34 -18 -77 -36 -96 -40 -19 -4 -39 -10 -45 -14 -5 -4 -37 -17 -70 -30
-33 -13 -67 -30 -76 -37 -8 -8 -18 -14 -22 -14 -4 0 -30 -11 -59 -24 -29 -13
-71 -30 -93 -37 -22 -6 -57 -23 -77 -36 -21 -12 -40 -23 -43 -23 -8 0 -105
-47 -125 -60 -8 -5 -42 -21 -75 -36 -111 -48 -145 -65 -162 -82 -9 -9 -21 -17
-27 -18 -25 -1 -85 -34 -94 -50 -6 -11 -14 -16 -18 -12 -4 4 -19 -1 -34 -12
-16 -11 -35 -20 -43 -20 -8 0 -20 -6 -26 -14 -15 -18 -91 -58 -91 -48 0 4 -5
-1 -11 -11 -6 -9 -14 -15 -20 -12 -5 4 -9 1 -9 -6 0 -7 -3 -10 -6 -7 -3 4 -14
-2 -25 -13 -11 -11 -24 -17 -30 -13 -6 3 -16 -2 -23 -12 -7 -9 -20 -15 -28
-12 -8 4 -20 -2 -26 -13 -6 -10 -38 -31 -69 -46 -32 -15 -61 -32 -65 -38 -4
-5 -8 -6 -8 -2 0 4 -10 -2 -22 -13 -12 -11 -28 -18 -34 -16 -7 3 -20 -6 -29
-20 -9 -14 -20 -22 -25 -19 -5 3 -11 1 -15 -5 -4 -6 -11 -8 -16 -5 -5 4 -9 2
-9 -4 0 -5 -10 -13 -22 -17 -13 -4 -54 -28 -93 -54 -38 -25 -77 -49 -85 -52
-18 -6 -152 -94 -246 -160 -139 -98 -231 -158 -240 -158 -6 0 -23 -13 -39 -30
-16 -16 -35 -30 -42 -30 -7 0 -38 -22 -68 -50 -30 -27 -59 -50 -64 -50 -5 0
-28 -16 -51 -35 -23 -19 -47 -35 -54 -35 -7 0 -27 -16 -46 -35 -19 -19 -39
-35 -46 -35 -12 0 -65 -41 -165 -127 -27 -24 -54 -43 -59 -43 -5 0 -42 -28
-83 -62 -41 -35 -130 -108 -197 -163 -68 -55 -158 -131 -200 -170 -42 -38
-109 -99 -149 -135 -247 -221 -708 -679 -801 -796 -8 -11 -66 -73 -128 -139
-63 -66 -138 -151 -167 -190 -28 -38 -62 -79 -74 -89 -11 -11 -21 -25 -21 -33
0 -7 -5 -13 -12 -13 -6 0 -8 -3 -5 -7 4 -3 -25 -39 -64 -79 -39 -41 -68 -78
-65 -83 3 -4 -17 -29 -44 -55 -27 -25 -46 -46 -42 -46 4 0 -6 -12 -21 -26 -15
-14 -25 -30 -21 -35 3 -5 -15 -28 -41 -51 -25 -23 -53 -54 -61 -69 -8 -15 -38
-56 -66 -91 -29 -34 -62 -77 -73 -94 -49 -78 -138 -203 -155 -219 -11 -10 -20
-23 -20 -29 0 -7 -13 -27 -30 -46 -16 -19 -29 -40 -30 -45 0 -6 -13 -26 -30
-45 -16 -19 -29 -40 -30 -45 0 -6 -13 -26 -30 -45 -16 -19 -29 -39 -30 -45 0
-5 -9 -21 -20 -35 -34 -42 -110 -157 -110 -166 0 -5 -14 -27 -30 -48 -17 -22
-30 -45 -30 -51 0 -6 -11 -22 -25 -35 -14 -13 -25 -28 -25 -34 0 -6 -18 -38
-40 -71 -22 -33 -40 -65 -40 -72 0 -6 -11 -25 -25 -41 -14 -17 -25 -32 -25
-34 0 -4 -90 -167 -161 -292 -16 -28 -43 -80 -60 -116 -43 -88 -45 -93 -101
-188 -26 -46 -51 -95 -54 -109 -4 -14 -24 -55 -45 -92 -22 -36 -39 -70 -39
-76 0 -5 -7 -23 -15 -38 -40 -77 -36 -131 15 -184 11 -13 19 -23 18 -24 -23
-6 -37 -6 -33 1 6 10 -60 61 -69 53 -3 -4 -6 -14 -6 -23 0 -10 -7 -23 -15 -30
-8 -7 -15 -23 -15 -36 0 -13 -3 -24 -8 -24 -4 0 -13 -9 -20 -21 -11 -17 -11
-20 0 -13 7 4 1 -6 -14 -24 -15 -18 -25 -39 -22 -47 4 -8 1 -15 -5 -15 -6 0
-11 -6 -11 -13 0 -7 -11 -37 -25 -66 -14 -28 -23 -56 -20 -62 4 -5 1 -9 -5 -9
-6 0 -9 -4 -6 -9 3 -4 -4 -25 -14 -47 -24 -47 -25 -55 -3 -47 12 5 14 3 8 -8
-6 -11 -5 -12 6 -1 7 6 24 12 37 12 16 0 21 -4 16 -12 -6 -10 -5 -10 8 -1 8 7
17 10 20 8 6 -7 42 -14 81 -17 15 -1 27 -6 27 -11 0 -4 5 -5 10 -2 6 3 10 1
10 -4 0 -6 3 -10 8 -9 4 1 21 -4 37 -11 17 -7 36 -14 43 -15 19 -3 62 -53 62
-72 0 -9 -6 -28 -14 -42 -7 -15 -18 -38 -24 -52 -55 -130 -48 -121 -86 -118
-20 1 -38 8 -41 16 -3 8 -12 11 -21 8 -8 -3 -12 -2 -9 4 3 6 -1 11 -9 11 -25
2 -30 4 -43 12 -7 5 -13 5 -13 1 0 -3 -18 12 -40 35 -22 22 -43 41 -48 41 -10
0 -44 40 -34 40 4 0 2 4 -4 8 -6 4 -21 23 -33 42 -11 19 -21 32 -21 29 0 -17
-62 -175 -80 -203 -22 -37 -63 -155 -80 -231 -6 -27 -17 -56 -24 -65 -7 -8
-30 -64 -50 -124 -30 -87 -35 -111 -24 -117 17 -11 26 -11 33 1 3 5 0 7 -8 4
-8 -3 -17 2 -21 12 -5 13 -4 14 7 6 10 -9 16 -9 25 0 9 9 11 6 8 -9 -4 -20 23
-38 49 -33 5 1 1 -8 -9 -19 -21 -23 -35 -29 -17 -7 8 10 9 16 1 21 -5 3 -10
-1 -10 -10 0 -9 -4 -14 -8 -11 -5 3 -9 -1 -9 -9 0 -8 3 -13 6 -12 3 1 6 -2 6
-8 0 -5 -4 -9 -10 -7 -5 2 -1 -6 9 -17 21 -23 35 -29 17 -7 -7 9 -8 17 -2 20
5 3 11 1 13 -6 2 -6 11 -12 20 -14 11 -1 15 3 11 13 -5 12 -7 12 -15 1 -7 -10
-8 -8 -4 5 4 12 2 16 -5 11 -8 -4 -7 0 0 15 14 25 23 28 14 4 -4 -11 -3 -14 6
-9 6 4 11 4 10 -1 -3 -19 2 -34 10 -29 5 4 7 -4 4 -16 -5 -23 -5 -23 11 -3 13
17 15 17 10 2 -3 -9 -1 -24 6 -32 7 -8 10 -21 7 -28 -3 -8 1 -14 8 -14 14 0
10 22 -8 45 -7 9 -6 17 3 25 9 8 11 8 7 1 -4 -7 -1 -24 7 -38 8 -15 12 -48 10
-77 -2 -34 0 -47 8 -43 7 4 8 3 4 -5 -4 -6 -11 -9 -16 -6 -4 3 -11 -1 -14 -7
-3 -7 -3 -3 -1 9 3 12 1 24 -4 28 -7 4 -8 -1 -4 -11 4 -12 3 -15 -5 -10 -8 5
-10 1 -5 -10 4 -11 2 -15 -4 -11 -6 4 -13 1 -16 -7 -4 -9 -14 -12 -28 -9 -13
4 -20 2 -16 -4 3 -5 0 -10 -8 -10 -7 0 -13 10 -13 21 0 12 0 30 -1 40 -1 20
-1 20 -17 0 -14 -17 -15 -17 -10 -1 3 11 2 16 -4 12 -6 -4 -8 -17 -6 -30 5
-25 -15 -50 -29 -37 -5 4 -5 2 -2 -5 12 -20 42 -8 42 17 0 13 5 25 12 27 8 3
10 -3 7 -19 -3 -13 -6 -28 -6 -34 -1 -6 -13 -10 -27 -9 -14 1 -32 -3 -39 -8
-9 -7 -11 -5 -6 9 4 10 4 16 -1 12 -12 -12 -15 -59 -2 -51 7 4 8 0 4 -11 -4
-10 -3 -15 3 -11 6 3 10 1 10 -6 0 -7 3 -10 6 -7 3 4 1 15 -5 27 -8 13 -8 22
-1 26 6 4 10 3 9 -2 -5 -30 2 -35 24 -17 22 19 22 19 4 -2 -9 -11 -17 -27 -17
-34 0 -9 5 -7 16 6 8 10 12 13 8 5 -5 -10 -3 -13 8 -8 9 3 21 0 28 -6 7 -7 10
-7 8 -2 -3 6 0 15 7 22 11 10 15 10 18 0 3 -7 6 -3 6 8 1 17 3 17 11 5 8 -13
10 -12 10 4 0 19 0 19 13 1 10 -12 16 -14 21 -7 4 7 12 12 17 12 6 0 7 -6 3
-12 -6 -10 -4 -10 7 -2 20 15 36 12 54 -11 l15 -20 -6 20 c-7 20 -7 20 9 0 15
-20 13 -40 -3 -30 -5 3 -9 -3 -9 -12 1 -18 -8 -76 -12 -80 -3 -4 -6 -22 -8
-38 0 -8 -6 -15 -12 -15 -5 0 -8 4 -5 9 3 5 -3 20 -15 32 l-20 24 16 -26 c14
-24 14 -27 1 -32 -9 -4 -22 2 -30 15 -14 20 -15 20 -25 -13 l-11 -34 3 33 c2
18 0 35 -5 38 -5 3 -8 2 -7 -3 1 -4 1 -21 0 -38 -1 -24 -3 -27 -12 -15 -8 12
-9 11 -7 -5 2 -13 -2 -19 -12 -17 -8 2 -12 0 -8 -4 4 -4 2 -14 -4 -23 -7 -9 2
-3 19 12 17 16 35 27 40 25 4 -1 9 7 11 20 3 19 5 20 18 7 8 -8 21 -12 28 -9
22 8 25 -8 10 -44 -9 -21 -18 -31 -26 -26 -8 5 -9 2 -5 -12 5 -14 2 -12 -12 6
-16 20 -17 28 -8 40 11 13 10 13 -5 1 -10 -7 -18 -10 -18 -5 0 4 -11 -3 -25
-16 -14 -13 -25 -28 -25 -34 0 -5 7 -1 15 10 8 10 15 14 15 7 0 -6 -4 -14 -9
-18 -6 -3 -8 -14 -6 -25 2 -12 0 -18 -6 -15 -5 4 -7 11 -4 16 4 5 -1 12 -9 15
-9 3 -13 11 -10 18 3 6 -4 0 -15 -13 -12 -12 -19 -26 -16 -30 2 -5 -14 -7 -37
-6 -30 2 -47 9 -61 26 -11 13 -23 24 -27 24 -5 0 -12 3 -16 7 -4 4 -13 3 -20
-3 -10 -8 -12 -6 -10 8 3 14 -2 19 -19 19 -13 0 -22 -3 -19 -7 2 -4 0 -11 -6
-14 -6 -4 -10 -3 -9 2 3 18 -2 33 -11 33 -5 0 -10 -8 -10 -18 0 -10 -4 -22 -9
-27 -5 -6 -17 -46 -26 -90 -9 -44 -20 -84 -26 -89 -5 -6 -9 -22 -9 -37 0 -27
-14 -78 -31 -114 -6 -12 -14 -45 -19 -75 -5 -30 -16 -84 -25 -120 -39 -162
-45 -190 -45 -214 0 -15 -4 -34 -10 -44 -11 -20 -31 -130 -33 -187 -2 -31 2
-40 15 -40 9 0 20 -4 25 -9 5 -5 2 -6 -6 -1 -10 6 -12 4 -5 -6 13 -21 15 -47
4 -54 -6 -4 -8 -10 -5 -15 3 -5 1 -11 -4 -14 -11 -7 -9 13 4 34 7 12 6 13 -7
3 -8 -7 -17 -10 -20 -8 -3 3 -4 -7 -1 -22 3 -27 3 -27 -8 -5 -19 35 -26 26
-33 -45 -4 -36 -10 -71 -14 -77 -3 -6 -8 -26 -9 -44 -1 -19 -6 -39 -11 -45 -5
-7 -8 -31 -6 -54 1 -24 -1 -45 -6 -48 -5 -3 -7 -12 -3 -20 3 -8 -1 -32 -9 -53
-8 -20 -13 -62 -12 -92 1 -30 -3 -73 -11 -95 -7 -22 -16 -81 -19 -130 -3 -50
-10 -105 -15 -123 -6 -18 -11 -62 -13 -97 -1 -36 -5 -65 -9 -65 -3 0 -6 -17
-6 -37 -1 -83 -14 -251 -24 -303 -42 -232 -42 -1618 1 -1771 5 -20 10 -65 10
-100 1 -128 16 -206 44 -240 29 -34 29 -73 0 -95 -14 -11 -14 -33 1 -66 4 -10
5 -36 3 -58 -2 -22 -1 -40 3 -40 3 0 7 -28 8 -62 1 -34 6 -82 12 -107 6 -25
12 -71 14 -101 4 -68 30 -240 50 -340 8 -41 22 -115 30 -165 21 -124 26 -145
37 -145 6 0 7 -11 4 -26 -6 -24 4 -83 35 -209 6 -22 14 -60 18 -85 4 -25 12
-61 19 -80 6 -19 17 -62 25 -95 8 -33 20 -80 27 -105 6 -25 15 -65 19 -90 4
-25 13 -55 19 -67 7 -12 12 -32 12 -45 0 -14 13 -64 30 -113 16 -49 30 -98 30
-110 0 -11 25 -95 56 -185 30 -91 59 -189 64 -219 5 -30 16 -61 24 -70 8 -9
20 -39 27 -66 22 -91 71 -240 90 -271 11 -17 19 -43 19 -56 0 -28 66 -215 84
-238 14 -18 31 -58 82 -200 21 -58 48 -122 60 -142 13 -20 26 -49 30 -65 4
-15 20 -57 36 -91 15 -35 28 -68 28 -73 0 -9 22 -56 114 -249 9 -19 21 -42 26
-50 9 -15 44 -93 70 -159 8 -19 31 -60 52 -92 21 -31 38 -65 38 -76 0 -10 4
-23 9 -28 5 -6 19 -28 31 -50 12 -22 31 -56 42 -76 l20 -36 -190 -319 c-104
-175 -442 -746 -752 -1269 -310 -522 -571 -962 -581 -977 -11 -14 -19 -29 -19
-32 0 -3 756 -6 1679 -6 l1679 0 44 -51 c113 -133 356 -384 545 -562 326 -309
382 -359 416 -380 18 -11 64 -49 102 -86 39 -36 88 -80 110 -96 22 -16 72 -57
111 -90 90 -75 259 -208 353 -278 25 -17 101 -75 170 -127 69 -51 142 -102
161 -111 19 -9 46 -29 60 -44 14 -15 41 -35 60 -45 39 -20 117 -72 172 -113
19 -15 38 -27 41 -27 4 0 29 -16 56 -35 26 -19 54 -35 60 -35 6 0 30 -17 54
-38 23 -21 64 -49 90 -62 27 -12 60 -32 75 -44 15 -11 53 -34 85 -50 32 -17
74 -44 95 -61 20 -17 62 -43 92 -58 72 -37 155 -82 264 -146 49 -28 91 -51 94
-51 2 0 30 -16 62 -35 32 -19 62 -35 68 -35 6 0 59 -27 117 -61 59 -33 109
-58 112 -55 3 3 25 -8 49 -25 24 -17 48 -28 53 -24 5 3 11 2 13 -2 6 -14 185
-98 201 -94 5 1 20 -7 33 -18 14 -11 31 -18 39 -15 7 3 20 -4 28 -16 9 -12 20
-20 25 -16 5 3 20 -3 33 -15 12 -11 28 -18 35 -15 7 3 14 2 16 -2 6 -13 152
-81 253 -118 55 -19 132 -51 170 -69 39 -18 97 -43 130 -55 33 -13 87 -33 120
-46 33 -13 65 -24 70 -24 6 0 35 -13 65 -29 31 -16 94 -39 140 -50 95 -24 217
-68 226 -82 3 -5 19 -9 35 -9 29 0 194 -50 231 -70 10 -6 34 -14 55 -19 21 -6
58 -15 83 -22 87 -22 155 -42 187 -56 17 -7 37 -13 45 -13 7 0 51 -14 98 -30
46 -17 97 -30 113 -30 15 0 56 -9 90 -19 79 -25 229 -62 287 -70 25 -4 51 -10
58 -15 7 -4 33 -10 59 -13 26 -2 74 -13 107 -24 34 -10 77 -19 96 -19 19 0 67
-8 105 -16 86 -20 135 -28 245 -43 47 -7 110 -18 140 -26 30 -8 76 -16 102
-17 27 -2 48 -5 48 -8 0 -4 16 -4 35 -2 19 2 41 0 48 -6 6 -5 64 -13 127 -17
63 -4 120 -11 127 -17 6 -5 34 -7 62 -5 28 3 54 1 57 -4 3 -5 9 -7 14 -4 5 3
11 1 15 -5 3 -5 34 -10 68 -11 34 0 87 -5 117 -10 75 -14 403 -37 695 -50 267
-11 1063 -4 1129 11 22 5 111 14 196 20 85 5 218 16 295 24 77 8 190 19 250
25 61 6 130 15 155 20 25 5 83 13 129 16 46 4 95 11 109 16 27 11 90 21 252
44 58 8 119 17 135 20 61 12 182 37 240 50 97 22 178 37 213 41 18 2 38 6 45
11 6 4 32 10 57 14 58 8 208 45 287 70 34 10 75 19 90 19 16 0 67 13 113 30
47 16 91 30 98 30 8 0 28 6 45 13 32 14 100 34 187 56 25 7 62 16 83 22 21 5
45 14 55 19 32 17 205 70 232 70 14 0 35 6 46 14 28 20 124 56 149 56 29 0
156 45 212 75 26 14 52 25 58 25 5 0 37 11 70 24 33 13 87 33 120 46 33 12 92
37 130 55 39 18 115 49 170 69 55 20 125 49 155 65 30 16 87 41 125 56 39 15
77 34 86 41 8 8 18 14 22 14 10 0 262 115 312 143 21 11 37 19 120 58 28 13
57 29 65 35 8 6 40 23 70 38 108 54 117 59 330 177 63 35 124 69 135 76 11 7
48 26 81 43 34 16 82 46 107 65 25 19 66 46 91 59 25 13 57 33 72 45 14 11 49
32 78 45 28 13 62 36 76 51 14 15 48 37 75 50 28 12 59 32 69 44 11 11 25 21
32 21 6 0 31 16 54 35 23 19 48 35 55 35 7 0 32 16 55 35 23 19 46 35 51 35 4
0 31 20 59 45 28 25 56 45 62 45 6 0 72 46 148 102 75 57 157 118 181 135 91
67 144 110 359 285 36 29 83 66 105 83 22 16 72 60 110 96 39 37 84 75 102 86
97 58 925 868 986 964 l19 29 693 0 c394 0 696 4 699 9 3 5 6 427 6 939 0 512
4 932 8 934 14 6 91 126 85 132 -4 3 -1 6 6 6 7 0 10 4 7 9 -4 5 -1 11 4 13 6
2 12 11 14 20 1 9 11 26 21 38 10 12 20 28 21 36 1 9 10 24 18 33 9 10 13 21
9 25 -5 4 1 14 11 22 11 8 17 14 13 14 -3 0 5 11 18 24 13 13 27 40 30 60 4
20 12 36 18 36 6 0 7 3 4 7 -4 3 2 13 14 21 11 8 18 20 15 28 -3 8 4 22 15 33
11 10 21 25 23 34 1 8 10 22 19 31 9 10 15 22 11 27 -3 5 3 21 14 37 19 27 29
50 30 66 0 5 7 13 16 18 9 5 16 16 16 23 0 8 5 15 11 15 5 0 7 5 4 11 -4 5 1
19 11 30 9 10 13 19 9 19 -5 0 1 10 13 23 11 12 20 24 20 27 -3 12 36 100 44
100 5 0 7 4 4 9 -3 5 4 20 15 35 11 14 25 41 30 60 5 18 20 50 34 70 14 20 28
48 31 63 4 14 17 45 30 67 13 23 23 48 23 56 0 10 -3 8 -9 -5 -5 -11 -9 -16
-9 -11 -1 5 -8 3 -16 -4 -8 -7 -12 -17 -8 -24 4 -7 1 -6 -9 1 -8 7 -17 11 -20
8 -3 -3 -11 2 -19 12 -8 9 -9 14 -3 10 17 -10 25 18 11 34 -10 11 -9 11 6 0 9
-7 17 -10 17 -5 0 14 -16 36 -26 35 -11 -1 -13 20 -4 34 3 6 5 20 4 33 -1 12
-2 29 -3 38 0 8 -6 12 -11 9 -14 -9 -25 24 -12 37 8 8 10 4 6 -13 l-5 -24 11
23 c5 13 13 21 18 18 4 -2 9 5 9 16 2 20 1 20 -13 2 -12 -14 -14 -15 -11 -3 3
9 -1 16 -9 16 -7 0 -11 -4 -8 -8 2 -4 0 -11 -6 -14 -6 -4 -10 -3 -9 2 3 19 -2
34 -10 28 -5 -3 -13 0 -18 7 -10 17 -12 58 -2 64 4 2 6 13 4 24 -2 12 0 18 6
15 5 -4 7 -10 5 -14 -3 -4 1 -8 9 -8 11 0 12 5 3 21 -10 19 -10 20 6 7 15 -12
17 -12 14 0 -2 8 -10 20 -18 27 -8 8 -9 11 -2 7 17 -9 44 14 38 31 -3 7 -1 16
5 20 7 4 6 10 -1 19 -8 9 -8 15 0 20 6 4 10 3 9 -2 -1 -4 0 -10 1 -13 8 -21 7
-39 -2 -34 -7 5 -8 2 -4 -5 8 -12 20 -7 22 7 0 4 6 19 12 35 13 29 25 38 15
10 -3 -10 -3 -15 1 -12 10 9 16 50 7 44 -15 -8 -31 19 -21 35 6 8 10 11 10 5
0 -5 5 -3 10 5 7 11 10 12 10 2 0 -19 26 8 33 34 4 17 5 17 6 -3 1 -26 17 -38
27 -22 4 8 3 9 -4 5 -8 -5 -12 5 -11 31 0 29 2 34 8 18 5 -11 7 -23 5 -26 -2
-3 3 -6 11 -6 11 0 12 4 3 14 -6 7 -8 16 -5 20 4 3 2 12 -4 19 -8 10 -6 12 10
9 19 -3 44 23 46 47 0 3 4 10 9 15 5 4 6 3 2 -4 -3 -6 -2 -14 4 -18 5 -3 11
-1 11 4 3 26 4 30 11 37 11 11 0 -36 -12 -50 -5 -7 -6 -17 -2 -22 4 -4 -1 -2
-10 5 -12 9 -18 10 -18 2 0 -6 5 -11 10 -11 6 0 5 -6 -2 -14 -7 -8 -16 -10
-19 -4 -3 5 -11 2 -18 -6 -9 -11 -9 -16 0 -22 8 -4 9 -3 5 4 -4 7 -3 12 3 12
5 0 12 -6 14 -12 4 -10 6 -10 6 0 1 7 6 10 13 6 6 -4 8 -3 5 3 -4 6 0 16 7 22
9 8 17 8 20 2 3 -5 0 -12 -6 -15 -7 -3 -6 -4 4 -3 9 1 17 -2 17 -8 0 -5 -7 -9
-15 -7 -8 2 -14 -2 -14 -8 0 -6 -4 -9 -9 -5 -14 8 -32 -30 -20 -42 6 -6 5 -10
-5 -10 -9 0 -13 8 -10 23 l4 23 -25 -25 c-14 -14 -30 -22 -35 -19 -18 11 -10
-12 11 -31 14 -13 20 -14 17 -4 -2 9 5 14 18 15 28 0 65 33 62 54 -2 9 2 16 9
16 6 0 15 4 19 8 11 10 14 38 4 32 -4 -3 -13 2 -19 9 -8 9 -8 16 -2 20 6 4 7
14 4 23 -4 10 -2 14 5 9 6 -3 16 2 22 11 10 16 11 15 7 -5 -3 -12 -1 -20 4
-16 5 3 9 11 9 19 0 8 4 17 10 20 6 4 7 -1 3 -12 -4 -11 2 -8 15 9 12 14 22
32 22 40 0 10 3 9 10 -2 8 -13 10 -12 10 3 0 10 3 16 8 14 4 -3 8 10 8 29 2
59 4 65 13 60 5 -4 7 4 4 16 -4 19 -3 20 6 8 8 -11 11 -11 12 -2 2 12 5 26 9
40 1 4 2 16 1 27 -1 18 0 18 9 -2 12 -30 23 -30 15 0 -5 17 -4 19 4 7 10 -13
11 -13 12 0 1 8 1 19 0 23 -1 5 3 6 9 2 7 -4 7 -12 0 -26 -6 -11 -8 -24 -5
-29 3 -5 -4 -7 -15 -5 -13 3 -18 0 -14 -7 5 -7 2 -8 -6 -3 -8 5 -11 4 -7 -3
13 -20 67 6 67 32 0 22 93 298 105 309 6 7 10 18 7 25 -2 7 4 22 13 32 9 10
14 24 10 29 -3 6 -2 11 4 11 6 0 8 7 4 15 -3 9 2 24 12 35 9 10 14 24 10 29
-3 6 -2 11 4 11 6 0 8 7 5 15 -4 8 -2 21 4 28 5 6 13 37 17 67 4 30 12 58 17
61 5 3 12 25 15 48 3 22 9 41 14 41 8 0 24 58 20 77 -1 7 3 13 9 13 6 0 9 4 6
9 -3 5 1 23 10 40 9 19 13 42 10 56 -4 14 -3 25 2 25 10 0 49 134 58 199 3 29
14 72 24 95 10 22 22 59 25 81 4 22 20 87 35 145 25 93 36 150 46 240 1 14 9
42 18 62 9 21 16 50 16 66 0 16 7 49 15 72 8 23 15 57 15 76 0 18 5 45 11 61
11 28 25 117 53 323 8 58 19 118 25 133 6 16 11 56 11 90 1 34 5 82 11 107 9
42 20 144 54 505 7 83 16 161 20 175 37 159 37 1620 0 1815 -3 17 -12 98 -20
180 -27 299 -36 381 -46 440 -6 33 -15 105 -20 160 -12 133 -14 147 -33 240
-10 44 -22 118 -28 165 -5 47 -16 103 -24 125 -8 23 -14 58 -14 78 0 21 -7 54
-15 74 -8 19 -15 45 -15 57 0 11 -6 50 -15 86 -8 36 -19 92 -25 125 -6 33 -25
108 -41 167 -16 59 -29 116 -29 127 0 12 -9 44 -20 73 -11 29 -20 67 -20 84 0
16 -18 85 -40 153 -22 67 -40 131 -40 142 0 11 -16 67 -35 125 -19 57 -35 113
-35 123 0 10 -7 32 -15 47 -8 16 -15 38 -15 50 0 20 -168 527 -195 589 -7 17
-23 62 -35 100 -12 39 -31 86 -41 105 -25 48 -43 91 -80 190 -17 47 -37 99
-44 115 -7 17 -21 53 -30 80 -10 28 -26 62 -36 77 -11 14 -19 31 -19 37 0 13
-20 49 -37 68 -13 15 -24 12 -134 -41 -41 -19 -94 -38 -119 -42 -25 -4 -51
-11 -57 -17 -7 -5 -13 -7 -13 -3 0 3 -11 1 -24 -4 -34 -12 -66 11 -47 34 7 9
17 13 22 10 5 -3 8 0 7 7 -2 6 3 14 11 17 10 3 11 0 5 -9 -7 -12 -5 -12 9 0 9
7 17 10 17 6 0 -4 8 1 18 12 9 10 15 14 12 8 -3 -6 2 -3 11 7 10 10 26 16 38
13 12 -2 19 0 16 6 -4 5 -11 6 -17 3 -6 -4 -8 -2 -5 4 4 5 15 9 25 7 9 -1 25
2 34 6 10 6 19 5 23 -1 4 -7 11 -8 18 -2 7 6 24 10 38 10 41 -1 97 21 95 37
-1 8 -9 22 -18 32 -8 10 -22 38 -31 63 -24 70 -62 157 -75 172 -6 8 -24 43
-40 79 -16 36 -41 83 -54 105 -14 21 -28 51 -32 66 -3 15 -20 50 -36 78 -17
28 -30 54 -30 58 0 5 -11 23 -25 42 -14 19 -25 39 -25 46 0 6 -19 44 -41 85
-23 41 -49 88 -58 105 -9 16 -26 43 -38 60 -11 16 -24 40 -28 54 -6 20 -63
122 -105 190 -5 8 -22 40 -37 70 -15 30 -40 69 -54 87 -15 18 -40 54 -55 80
-15 26 -40 67 -55 90 -16 23 -29 45 -29 49 0 9 -64 106 -98 148 -12 15 -29 43
-36 60 -7 18 -28 48 -45 68 l-31 36 0 721 0 721 -563 0 c-546 0 -564 1 -573
19 -24 51 -673 697 -855 851 -29 25 -87 77 -128 115 -42 39 -107 96 -146 127
-38 31 -80 65 -92 77 -12 11 -24 21 -27 21 -2 0 -17 11 -32 24 -126 107 -186
156 -194 156 -5 0 -32 19 -59 43 -100 86 -153 127 -165 127 -7 0 -27 16 -46
35 -19 19 -40 35 -47 35 -7 0 -27 13 -45 29 -18 15 -46 35 -63 44 -16 8 -43
29 -59 46 -17 17 -36 31 -43 31 -7 0 -33 18 -57 40 -24 22 -48 40 -54 40 -5 0
-33 17 -61 38 -28 20 -70 48 -93 62 -22 14 -62 41 -87 60 -25 19 -59 42 -75
50 -17 8 -59 36 -95 63 -36 26 -69 47 -74 47 -4 0 -34 17 -65 38 -31 21 -70
44 -87 51 -16 7 -35 21 -43 32 -8 11 -20 18 -27 15 -8 -3 -25 7 -39 21 -14 14
-26 23 -26 19 0 -4 -12 2 -26 13 -15 11 -30 19 -34 16 -4 -3 -10 2 -14 10 -3
8 -13 15 -21 15 -9 0 -23 7 -31 15 -9 8 -24 15 -34 15 -10 0 -28 12 -39 26
-12 15 -21 23 -21 19 0 -4 -11 0 -25 9 -13 9 -33 16 -44 16 -11 0 -25 8 -30
18 -6 9 -11 13 -11 8 0 -6 -6 -2 -13 8 -7 9 -20 18 -29 19 -9 2 -23 9 -31 16
-9 7 -23 14 -31 15 -8 1 -24 11 -36 21 -12 10 -28 20 -37 21 -9 2 -19 8 -23
15 -4 6 -20 12 -34 12 -18 0 -33 8 -43 24 -9 13 -18 21 -21 19 -2 -3 -14 0
-26 6 -11 7 -25 11 -29 10 -5 -1 -20 7 -34 18 -14 11 -29 17 -34 14 -5 -3 -18
4 -30 15 -12 11 -25 18 -29 16 -4 -3 -15 4 -25 15 -10 11 -22 17 -26 14 -5 -3
-21 4 -35 15 -14 11 -31 18 -39 15 -8 -3 -19 3 -26 14 -7 12 -19 18 -27 14
-10 -3 -13 -1 -8 6 5 8 2 10 -8 6 -9 -4 -18 1 -22 10 -4 10 -18 16 -35 16 -16
0 -29 5 -29 10 0 6 -9 10 -20 10 -11 0 -25 9 -32 20 -7 11 -23 20 -36 20 -13
0 -37 8 -55 17 -18 9 -36 16 -40 15 -5 -1 -20 6 -33 17 -14 11 -31 18 -39 15
-7 -3 -18 4 -24 15 -6 11 -17 18 -25 15 -7 -3 -19 2 -26 11 -7 8 -23 15 -36
15 -13 0 -24 5 -24 12 0 6 -3 9 -6 5 -9 -8 -137 39 -212 79 -35 19 -72 34 -83
34 -10 0 -19 4 -19 9 0 5 -17 12 -37 16 -21 4 -45 13 -54 21 -9 8 -20 14 -25
13 -21 -4 -43 2 -56 14 -7 6 -22 13 -33 15 -11 1 -29 7 -40 12 -11 4 -54 19
-95 31 -41 13 -84 29 -95 36 -11 7 -27 13 -36 13 -9 0 -22 7 -29 15 -7 8 -24
15 -39 15 -14 1 -71 16 -126 34 -66 22 -104 31 -112 25 -7 -7 -14 -6 -19 2 -5
8 -3 10 7 4 11 -6 11 -5 2 5 -14 15 -36 4 -26 -13 5 -8 2 -8 -9 0 -8 7 -19 9
-24 5 -5 -4 -6 -3 -2 2 4 5 0 15 -10 22 -13 9 -20 10 -31 1 -11 -9 -13 -9 -8
-1 4 7 0 15 -8 18 -10 4 -19 -2 -25 -17 -8 -20 -9 -20 -10 -2 0 15 -2 17 -9 6
-5 -7 -13 -11 -19 -7 -6 3 -13 2 -16 -3 -3 -5 -20 -7 -36 -6 -25 2 -30 -1 -26
-14 4 -11 1 -10 -10 4 -16 20 -16 20 -11 -2 3 -13 1 -26 -4 -29 -5 -3 -9 -2
-8 3 4 24 -3 33 -23 29 -13 -2 -28 0 -34 5 -12 9 -15 -5 -15 -60 0 -30 -20
-67 -31 -56 -4 4 -3 -46 2 -55 1 -3 2 -9 1 -13 -1 -5 3 -6 9 -2 5 3 10 -1 10
-10 0 -9 4 -14 8 -11 4 2 9 -4 9 -15 1 -11 -2 -17 -7 -14 -11 7 -7 -22 5 -32
4 -4 5 -2 0 6 -6 10 -4 12 5 6 8 -5 11 -4 7 1 -3 6 -2 16 3 24 7 11 9 6 7 -15
-1 -20 2 -29 11 -27 8 1 11 -2 8 -7 -7 -10 -31 -9 -42 2 -4 3 -15 2 -25 -4
-13 -6 -19 -6 -19 0 0 6 -7 8 -15 5 -8 -4 -15 -2 -15 2 0 5 -26 9 -58 9 -62 1
-134 29 -137 55 -1 8 2 26 6 40 9 25 9 25 5 -2 -2 -15 1 -25 5 -22 5 3 9 14 9
25 0 12 7 19 20 19 11 0 22 0 25 0 2 1 30 14 61 30 31 17 60 27 65 24 5 -3 14
7 19 21 9 24 12 25 27 14 15 -13 15 -12 2 11 -20 36 -36 50 -44 42 -4 -4 -5 5
-1 20 5 23 3 26 -14 23 -11 -2 -18 0 -15 5 3 6 -1 7 -9 4 -9 -3 -13 -11 -9
-17 3 -5 1 -7 -5 -4 -15 10 -43 -3 -35 -16 3 -5 2 -7 -4 -4 -24 15 -53 -25
-67 -94 -1 -3 -16 -23 -34 -45 -19 -21 -30 -33 -27 -26 6 11 1 11 -21 -1 -59
-29 -100 -35 -139 -18 -56 25 -102 38 -120 35 -26 -4 -65 22 -65 44 0 14 -2
15 -10 2 -7 -12 -9 -10 -7 7 0 12 5 19 9 17 7 -5 12 13 11 44 -1 6 3 12 7 12
5 0 7 8 5 18 -1 9 2 23 8 31 14 17 18 43 6 35 -5 -3 -7 -9 -4 -14 3 -5 2 -11
-3 -14 -4 -2 -7 12 -6 32 1 20 -1 42 -5 47 -3 6 -6 17 -6 25 0 8 -4 20 -8 27
-4 6 -2 15 4 19 7 4 9 3 5 -4 -3 -6 -2 -13 3 -17 5 -3 8 -14 6 -25 -2 -11 1
-22 6 -25 5 -4 7 -10 4 -15 -3 -5 0 -12 6 -16 7 -4 9 -3 6 3 -4 6 0 16 8 23 7
6 11 19 8 27 -4 11 -2 14 5 9 17 -10 26 19 13 41 -9 15 -10 13 -5 -12 4 -16 4
-27 0 -24 -4 4 -9 26 -11 50 -3 32 -2 38 5 24 8 -19 9 -19 9 -1 1 17 3 17 24
3 12 -8 21 -21 19 -27 -1 -6 2 -9 8 -5 6 4 38 -3 73 -15 82 -29 166 -36 191
-17 28 21 14 33 -56 46 -35 7 -76 18 -93 24 -16 7 -36 10 -42 9 -7 -2 -13 1
-13 6 0 5 -6 9 -12 10 -50 5 -150 22 -185 31 -24 6 -62 16 -85 22 -24 6 -65
15 -93 21 -27 5 -64 14 -80 19 -17 5 -57 13 -90 19 -99 16 -125 22 -125 29 0
4 -16 5 -35 3 -19 -2 -41 1 -49 7 -7 6 -40 14 -72 17 -32 3 -68 9 -79 14 -11
5 -60 14 -110 19 -49 6 -101 13 -115 15 -14 3 -65 10 -114 16 -49 6 -92 13
-97 16 -12 7 -227 34 -359 45 -63 5 -131 13 -150 18 -19 5 -107 13 -195 17
-88 4 -169 10 -181 14 -11 5 -114 12 -228 16 -113 4 -209 11 -212 15 -6 11
-738 12 -748 2z m2401 -254 c-1 -4 3 -6 8 -5 6 0 9 4 8 7 -1 3 5 6 13 6 10 0
8 -7 -8 -24 -23 -25 -24 -29 -7 -50 7 -7 6 -14 -2 -19 -7 -4 -9 -3 -5 4 3 6 2
13 -3 16 -5 4 -8 14 -6 24 1 9 -4 24 -11 33 -12 13 -12 16 0 16 8 0 14 -4 13
-8z m-21 -36 c2 -10 -1 -22 -5 -28 -5 -5 -7 -18 -6 -27 2 -10 0 -20 -4 -23
-10 -5 -8 42 2 51 16 16 6 26 -12 10 -10 -9 -17 -27 -15 -41 3 -31 2 -31 -22
-3 -19 22 -19 22 0 8 18 -14 19 -13 13 2 -3 10 -2 20 4 24 6 4 5 12 -3 22 -11
15 -11 15 3 4 13 -10 18 -10 28 1 6 8 9 17 6 20 -3 4 -2 5 2 2 4 -3 8 -13 9
-22z m-79 -108 c0 -8 -4 -12 -9 -9 -5 3 -6 10 -3 15 9 13 12 11 12 -6z m58 7
c-3 -3 2 -14 12 -24 24 -27 10 -22 -15 5 -17 18 -19 24 -7 24 8 0 13 -3 10 -5z
m-30 -30 c-2 -9 -4 -18 -4 -20 -1 -2 -6 0 -11 3 -8 5 -8 11 -1 19 6 7 7 17 3
21 -4 5 -2 5 5 2 6 -4 10 -15 8 -25z m-45 -17 c-8 -9 -8 -15 0 -20 5 -3 10 0
10 7 0 9 3 9 10 -2 5 -8 10 -11 10 -6 0 5 6 4 13 -3 20 -16 41 7 24 28 -11 14
-10 14 6 2 13 -10 14 -17 7 -26 -7 -8 -7 -15 -1 -19 5 -3 11 0 14 6 2 7 8 1
12 -14 4 -17 12 -25 19 -21 6 3 7 2 3 -3 -5 -5 -13 -9 -19 -9 -6 0 -12 -8 -14
-19 -5 -35 -20 -40 -76 -27 -29 7 -62 14 -73 16 -11 1 -19 8 -17 16 2 9 0 10
-11 1 -10 -9 -17 -9 -27 1 -10 9 -11 9 -6 0 11 -20 -15 -15 -31 5 -8 9 -12 11
-8 4 5 -10 0 -11 -22 -6 -15 4 -36 7 -45 7 -10 -1 -16 5 -15 17 1 10 5 16 9
14 5 -3 6 -10 3 -15 -3 -5 1 -6 9 -3 9 3 13 11 9 17 -3 6 -1 7 6 3 6 -4 9 -11
6 -16 -3 -4 2 -7 11 -6 8 1 19 8 23 15 6 10 10 9 14 -2 7 -19 39 -16 45 4 3
11 1 11 -8 -1 -8 -10 -10 -11 -8 -2 2 8 6 12 9 10 3 -2 12 2 20 8 8 5 21 10
29 9 8 0 18 4 22 10 5 6 8 5 8 -3 0 -7 5 -10 10 -7 6 4 8 10 5 15 -3 5 -1 11
5 15 6 4 7 11 4 17 -4 7 -2 8 5 4 9 -6 9 -11 1 -21z m-313 -20 c0 -8 -4 -12
-9 -9 -5 3 -6 10 -3 15 9 13 12 11 12 -6z m463 -9 c0 -2 -8 -10 -17 -17 -16
-13 -17 -12 -4 4 13 16 21 21 21 13z m845 -35 c3 -5 1 -12 -5 -16 -5 -3 -10 1
-10 9 0 18 6 21 15 7z m822 -123 c-3 -8 -6 -5 -6 6 -1 11 2 17 5 13 3 -3 4
-12 1 -19z m-87 -14 c0 -8 -19 -13 -24 -6 -3 5 1 9 9 9 8 0 15 -2 15 -3z m54
-2 c3 -5 -1 -9 -9 -9 -8 0 -12 4 -9 9 3 4 7 8 9 8 2 0 6 -4 9 -8z m-187 -24
c-3 -8 -6 -5 -6 6 -1 11 2 17 5 13 3 -3 4 -12 1 -19z m20 0 c-3 -8 -6 -5 -6 6
-1 11 2 17 5 13 3 -3 4 -12 1 -19z m20 0 c-3 -8 -6 -5 -6 6 -1 11 2 17 5 13 3
-3 4 -12 1 -19z m-120 -50 c-3 -8 -6 -5 -6 6 -1 11 2 17 5 13 3 -3 4 -12 1
-19z m4973 -4518 l0 -980 -3457 0 c-3272 0 -3460 -1 -3493 -18 -25 -12 -39
-28 -48 -56 -10 -30 -12 -569 -10 -2625 3 -2439 4 -2588 20 -2613 11 -16 34
-31 55 -37 26 -8 1084 -11 3366 -11 l3327 0 0 -985 0 -985 -3347 -2 c-2848 -3
-3351 -5 -3369 -17 -52 -35 -49 147 -52 -2742 -2 -2136 0 -2695 10 -2725 9
-28 23 -44 48 -56 33 -17 227 -18 3623 -18 l3587 0 0 -980 0 -980 -4750 0
-4750 0 -2 3723 c-3 3168 -5 3725 -17 3743 -35 52 118 49 -2371 52 -1273 2
-2334 0 -2358 -3 -27 -4 -54 -17 -72 -33 -16 -15 -78 -110 -138 -212 -60 -102
-218 -369 -352 -595 -134 -225 -351 -592 -483 -815 -132 -223 -268 -452 -302
-510 -34 -58 -142 -240 -240 -405 -98 -165 -206 -347 -240 -405 -34 -58 -171
-288 -304 -512 -132 -225 -349 -591 -482 -815 -132 -225 -253 -428 -269 -453
-15 -25 -79 -133 -142 -240 -135 -229 -732 -1237 -823 -1390 -68 -114 -424
-714 -567 -955 -48 -82 -92 -156 -96 -163 -6 -10 -257 -12 -1223 -10 l-1215 3
293 495 c162 272 354 596 427 720 406 684 1252 2111 1426 2405 42 72 155 263
252 425 96 162 305 516 465 785 349 589 1320 2228 1408 2375 34 58 142 240
240 405 98 165 206 347 240 405 34 58 170 287 302 510 132 223 321 540 418
705 98 165 256 431 350 590 453 765 714 1204 1485 2505 458 773 868 1464 910
1535 42 72 121 204 175 295 54 91 132 224 175 295 42 72 172 292 290 490 559
943 1071 1807 1089 1837 l16 28 5488 0 5487 0 0 -980z m-14938 -3582 c-4 -16
-2 -19 8 -13 9 5 11 4 6 -3 -4 -7 -9 -20 -11 -29 -2 -10 -7 -28 -11 -40 -7
-26 16 -26 47 1 20 17 21 17 14 -3 -7 -24 11 -37 30 -21 8 6 19 9 25 5 5 -3
10 0 10 7 0 8 5 6 11 -5 10 -17 12 -17 28 -3 15 14 17 13 18 -7 0 -12 -1 -16
-4 -9 -3 6 -9 9 -14 6 -6 -3 -5 -12 3 -22 11 -15 11 -15 -4 -4 -11 9 -18 10
-23 2 -5 -8 -11 -8 -21 1 -7 6 -11 15 -8 20 3 5 1 9 -5 9 -18 0 -23 -20 -7
-26 9 -3 13 -11 9 -17 -3 -6 -1 -7 5 -3 15 9 16 -6 2 -22 -7 -9 -7 -9 2 -2 8
6 17 6 27 -2 13 -10 14 -10 4 2 -7 8 -13 18 -13 22 0 13 30 9 30 -4 0 -7 5 -5
11 5 6 9 14 15 19 12 4 -3 6 5 2 17 -5 21 -4 22 11 9 9 -7 17 -10 17 -6 0 4 6
2 14 -5 8 -6 12 -19 9 -28 -3 -10 9 -3 29 16 32 30 48 33 48 8 0 -6 -4 -5 -9
2 -6 10 -10 10 -21 -3 -11 -13 -9 -15 11 -16 13 -1 27 -1 32 0 11 2 8 -13 -5
-29 -11 -12 -10 -12 3 -2 9 6 19 9 23 5 10 -10 -5 29 -18 47 -7 10 -3 9 10 -3
23 -19 27 -48 10 -59 -8 -6 -7 -8 1 -8 7 0 17 8 23 18 10 15 10 15 5 -4 -3
-13 1 -26 10 -34 13 -11 14 -10 9 4 -3 9 -1 16 5 16 6 0 11 -7 11 -15 0 -8 5
-15 11 -15 5 0 8 4 4 9 -3 5 -1 12 4 15 5 4 8 -2 6 -11 -2 -10 -4 -22 -4 -26
-1 -5 -7 -5 -13 -1 -9 5 -8 2 1 -10 11 -13 16 -14 22 -4 5 7 9 8 9 2 0 -6 -3
-14 -7 -18 -5 -4 -9 -12 -9 -17 -1 -5 -2 -12 -3 -15 0 -4 -8 -1 -16 6 -24 20
-18 5 7 -16 12 -10 18 -14 15 -7 -4 6 -3 14 3 18 6 4 8 11 5 16 -11 17 2 9 21
-13 10 -12 14 -18 8 -15 -13 7 -26 -15 -29 -48 -1 -15 5 -21 18 -23 27 -2 63
-37 48 -47 -7 -4 -10 -1 -9 7 2 7 -3 12 -10 10 -8 -1 -11 2 -7 8 3 5 1 10 -4
10 -6 0 -11 -2 -11 -4 0 -2 -3 -12 -7 -22 -5 -14 -3 -16 11 -11 10 4 15 3 11
-3 -3 -6 -13 -10 -22 -10 -11 0 -14 -7 -11 -25 3 -13 0 -26 -6 -28 -6 -2 -8
-8 -4 -12 4 -4 16 -2 25 6 15 11 15 10 -1 -9 -15 -17 -21 -19 -27 -10 -6 10
-12 9 -26 -5 -17 -17 -17 -18 1 -11 14 5 17 4 11 -5 -4 -8 -3 -16 3 -20 7 -4
4 -11 -9 -20 -12 -7 -18 -8 -15 -2 4 5 2 12 -4 16 -5 3 -10 -3 -10 -13 0 -11
-7 -25 -15 -32 -8 -7 -12 -16 -9 -21 3 -5 -3 -6 -13 -2 -16 6 -17 5 -3 -13 11
-15 11 -16 0 -7 -18 16 -22 46 -6 40 7 -3 18 5 25 16 11 18 11 20 0 10 -7 -7
-21 -13 -32 -13 -12 0 -16 4 -11 13 5 8 2 8 -9 -2 -18 -15 -23 -26 -7 -16 6 3
10 3 11 -2 5 -52 4 -60 -11 -58 -8 2 -15 4 -15 5 0 1 -8 3 -17 5 -11 2 -15 -2
-11 -11 3 -8 10 -11 17 -7 6 4 5 -1 -3 -10 -16 -20 -18 -20 -27 -5 -5 7 -3 8
6 3 9 -5 11 -4 6 4 -10 15 -29 3 -22 -15 3 -8 0 -11 -9 -7 -8 3 -12 10 -8 17
4 6 -1 5 -10 -3 -18 -14 -20 -12 -11 13 3 9 11 13 17 9 6 -4 7 -1 2 7 -6 10
-11 10 -20 -3 -7 -9 -15 -14 -19 -10 -4 4 -4 -1 0 -10 3 -10 3 -17 -2 -15 -16
4 -56 -23 -51 -36 3 -7 -1 -13 -9 -13 -7 0 -11 4 -8 8 2 4 0 11 -6 14 -6 4
-10 3 -9 -2 6 -34 -29 -50 -58 -27 -17 13 -17 14 0 8 9 -3 17 -1 17 4 0 6 -9
12 -20 14 -12 2 -19 7 -18 12 2 5 -8 13 -21 17 -23 9 -23 10 -6 37 10 15 14
24 10 20 -5 -4 -14 -3 -21 3 -10 8 -12 6 -9 -10 5 -25 -11 -37 -29 -22 -7 6
-17 7 -21 3 -5 -4 -5 -1 0 6 5 10 10 11 18 3 18 -18 29 -13 18 8 -6 10 -7 22
-3 26 4 5 2 5 -5 1 -6 -3 -14 -2 -18 4 -3 5 -11 10 -18 10 -6 0 -2 -6 8 -14
19 -13 18 -14 -6 -13 -23 2 -25 5 -16 24 5 12 13 20 18 18 4 -3 11 0 15 6 4 8
3 9 -4 5 -6 -3 -16 3 -22 14 -8 16 -15 19 -24 11 -15 -13 -26 -4 -26 19 0 9
-7 17 -15 17 -18 0 -19 -8 -2 -27 10 -12 9 -12 -4 -2 -9 6 -19 8 -24 4 -4 -4
-3 3 4 15 13 25 5 53 -15 53 -8 0 -14 5 -14 11 0 5 -4 8 -9 4 -5 -3 -13 0 -17
6 -4 8 -3 9 4 5 7 -4 11 3 9 23 -1 16 -6 27 -10 24 -5 -3 -6 -12 -2 -22 5 -12
3 -13 -5 -5 -9 9 -9 17 -1 32 14 26 14 35 1 27 -6 -3 -7 1 -4 9 3 9 10 16 15
16 6 0 5 9 -1 20 -8 14 -8 20 0 20 6 0 9 4 6 9 -4 5 -1 20 4 33 10 23 10 23 6
1 -5 -29 -2 -29 19 3 9 15 12 24 7 20 -6 -4 -10 2 -9 13 1 15 5 17 13 10 9 -8
11 -5 7 10 -3 13 -1 21 6 21 7 0 9 -5 5 -12 -5 -9 -2 -9 9 1 18 14 23 26 8 16
-5 -3 -12 -1 -16 5 -3 5 1 10 9 10 9 0 16 4 16 9 0 5 7 16 15 25 8 8 16 26 17
40 2 20 5 23 20 15 10 -6 15 -15 12 -21 -4 -7 -2 -8 5 -4 9 6 9 11 -1 23 -18
22 -19 43 0 36 11 -5 13 -3 7 7 -5 8 -4 11 1 7 5 -3 20 10 33 29 28 40 31 42
23 12z m44 -53 c-9 -7 -12 -16 -8 -20 4 -5 1 -5 -7 0 -12 7 -11 10 2 20 13 9
14 15 4 25 -10 11 -8 11 6 0 17 -13 17 -15 3 -25z m218 -76 c-3 -5 -10 -7 -15
-3 -5 3 -7 10 -3 15 3 5 10 7 15 3 5 -3 7 -10 3 -15z m221 -129 c3 -5 1 -10
-4 -10 -6 0 -11 5 -11 10 0 6 2 10 4 10 3 0 8 -4 11 -10z m2 -84 c-3 -7 -1
-18 5 -24 7 -7 5 -10 -8 -8 -18 3 -25 21 -17 39 7 13 25 7 20 -7z m41 -38 c-2
-7 3 -12 10 -10 8 1 11 -2 7 -8 -5 -8 -11 -8 -21 1 -7 6 -11 15 -8 20 8 13 14
11 12 -3z m-5825 -148 c7 -27 -2 -25 -13 3 -6 16 -9 17 -9 5 -1 -9 -5 -19 -9
-22 -6 -3 -8 30 -3 53 2 9 29 -22 34 -39z m-312 7 c-10 -9 -11 -8 -5 6 3 10 9
15 12 12 3 -3 0 -11 -7 -18z m5421 -19 c-6 -6 -7 0 -4 19 5 21 7 23 10 9 2
-10 0 -22 -6 -28z m-5367 13 c3 -5 2 -12 -3 -15 -5 -3 -9 1 -9 9 0 17 3 19 12
6z m29 -27 c3 -8 2 -12 -4 -9 -6 3 -10 10 -10 16 0 14 7 11 14 -7z m142 -10
c1 -9 0 -13 -4 -10 -3 4 -7 14 -8 22 -1 9 0 13 4 10 3 -4 7 -14 8 -22z m5298
-20 c3 -8 2 -12 -4 -9 -6 3 -10 2 -10 -2 0 -5 -6 -17 -13 -28 -11 -14 -16 -15
-22 -5 -5 9 -4 11 3 6 8 -5 12 0 12 13 0 12 -5 21 -11 21 -5 0 -7 -5 -3 -12 4
-7 3 -8 -5 -4 -15 10 -3 29 15 22 7 -3 16 -1 19 4 8 14 12 12 19 -6z m506 -28
c0 -2 -8 -10 -17 -17 -16 -13 -17 -12 -4 4 13 16 21 21 21 13z m-240 -121 c-7
-9 -15 -13 -18 -10 -3 2 1 11 8 20 7 9 15 13 18 10 3 -2 -1 -11 -8 -20z m57
10 c4 -4 2 -5 -4 -1 -7 4 -13 2 -13 -4 0 -6 -4 -8 -10 -5 -5 3 -10 10 -10 15
0 10 27 7 37 -5z m-3677 -641 c0 -8 -19 -13 -24 -6 -3 5 1 9 9 9 8 0 15 -2 15
-3z m-85 -33 c3 -5 2 -12 -3 -15 -5 -3 -9 1 -9 9 0 17 3 19 12 6z m-2303 -181
c3 -17 1 -27 -4 -22 -12 12 -19 52 -9 52 5 0 11 -14 13 -30z m22 -6 c3 -8 2
-12 -4 -9 -6 3 -10 10 -10 16 0 14 7 11 14 -7z m17989 -754 c-3 -11 -9 -17
-15 -14 -5 3 -4 12 3 20 16 19 18 18 12 -6z m42 -15 c-1 -20 2 -38 7 -41 4 -3
6 -9 3 -14 -3 -5 -1 -12 5 -15 6 -4 10 -3 9 2 -4 24 3 25 18 3 10 -14 18 -28
19 -32 1 -5 3 -11 4 -15 1 -5 2 -11 1 -15 0 -5 3 -7 8 -5 5 1 9 -2 9 -8 0 -5
-4 -9 -9 -7 -15 4 -10 -4 13 -24 16 -13 19 -14 10 -2 -9 11 -10 18 -2 23 8 5
8 11 -1 21 -9 11 -8 14 4 14 11 0 14 -7 11 -26 -3 -18 -1 -23 7 -18 7 4 10 3
7 -2 -3 -5 -8 -17 -12 -28 -5 -16 -9 -16 -24 -5 -15 13 -16 12 -4 -3 8 -10 19
-16 25 -15 7 1 11 -4 9 -11 -1 -8 2 -11 8 -7 8 5 8 11 1 19 -8 9 -7 13 3 13 9
0 13 -8 10 -20 -5 -29 -27 -40 -36 -19 -5 14 -7 14 -7 2 -1 -9 4 -21 10 -27
28 -28 -5 -33 -203 -33 -171 0 -199 2 -195 14 4 10 1 13 -8 9 -8 -3 -13 -9
-10 -13 7 -11 -22 -6 -32 5 -4 4 -3 5 3 2 7 -4 14 5 18 24 3 18 10 28 17 24 6
-4 5 2 -3 14 -7 12 -17 21 -23 21 -5 0 -3 4 5 10 9 6 17 5 21 -1 4 -7 9 -4 12
5 4 9 2 15 -2 13 -13 -3 -15 5 -7 31 4 12 12 20 17 17 5 -4 9 -1 9 4 0 6 -5
11 -11 11 -6 0 -8 7 -5 16 5 12 2 15 -11 10 -13 -5 -15 -4 -7 4 6 6 21 12 33
13 16 1 20 6 16 22 -3 11 -2 14 1 7 3 -6 11 -9 16 -6 6 4 8 2 5 -3 -4 -6 5
-19 19 -28 15 -9 24 -13 20 -7 -3 5 2 16 11 23 14 13 16 11 11 -14 -4 -20 -2
-25 7 -17 6 5 15 7 18 3 13 -12 7 13 -5 27 -11 12 -10 12 5 1 9 -7 17 -10 17
-5 0 4 7 -1 15 -12 11 -13 14 -14 13 -4 -2 8 -11 21 -21 28 -13 10 -15 17 -7
27 13 16 39 13 51 -6 12 -20 11 -2 -2 22 -9 19 -9 19 10 10 11 -6 23 -16 26
-21 4 -6 11 -7 17 -4 7 5 9 1 5 -9 -3 -9 1 -21 11 -29 15 -11 16 -11 6 2 -11
16 -11 47 -1 74 10 25 14 19 12 -19z m-34 -8 c-10 -9 -11 -8 -5 6 3 10 9 15
12 12 3 -3 0 -11 -7 -18z m66 -11 c-12 -26 -19 -26 -23 -1 -1 8 2 13 6 10 5
-3 11 -1 15 5 12 19 13 10 2 -14z m-177 10 c0 -2 -8 -10 -17 -17 -16 -13 -17
-12 -4 4 13 16 21 21 21 13z m204 -48 l16 -33 -20 24 c-11 13 -20 27 -20 32 0
17 9 9 24 -23z m-259 12 c-3 -5 -12 -10 -18 -10 -7 0 -6 4 3 10 19 12 23 12
15 0z m282 -5 c0 -8 -4 -12 -9 -9 -5 3 -6 10 -3 15 9 13 12 11 12 -6z m17 -41
c3 -8 2 -12 -4 -9 -6 3 -10 1 -10 -5 0 -6 -4 -8 -10 -5 -6 4 -5 11 3 20 15 18
14 18 21 -1z m-401 -29 c-3 -8 -9 -15 -13 -15 -5 0 -7 -9 -5 -19 3 -19 -16
-23 -32 -7 -4 4 -1 6 7 4 8 -1 15 3 16 10 1 6 3 14 4 17 2 5 5 15 9 31 0 3 5
3 11 -1 5 -3 7 -12 3 -20z m-28 -104 c-2 -9 -4 -18 -5 -21 -1 -3 -2 -9 -1 -13
1 -5 -3 -6 -9 -2 -8 5 -8 11 -1 19 7 8 7 16 0 23 -6 6 -5 10 5 10 7 0 12 -7
11 -16z m471 -46 c-1 -8 -6 -18 -12 -22 -5 -4 -6 -4 -2 1 4 5 3 15 -3 23 -9
10 -8 13 4 13 8 0 14 -7 13 -15z m6460 -1850 c9 -14 21 -22 28 -18 6 4 5 -1
-3 -10 -11 -14 -11 -18 4 -23 13 -5 14 -9 3 -15 -11 -7 -11 -9 1 -9 10 0 11
-3 2 -13 -6 -8 -8 -17 -5 -20 4 -3 4 -14 0 -23 -5 -13 -9 -14 -20 -5 -11 9
-16 9 -22 0 -5 -8 -3 -9 6 -4 8 5 11 4 7 -2 -4 -6 -18 -8 -33 -5 -22 4 -25 8
-19 31 3 14 9 52 12 84 6 63 14 70 39 32z m-13236 -436 l0 -70 -120 3 c-66 2
-120 5 -120 8 0 3 -45 5 -99 5 -55 0 -97 3 -95 6 2 3 -11 6 -29 7 -47 2 -106
10 -117 17 -5 3 -11 1 -15 -5 -4 -6 -12 -7 -18 -3 -7 4 -23 8 -37 9 -44 3 -54
8 -83 44 -26 31 -27 35 -10 41 10 4 181 8 381 8 l362 1 0 -71z m4490 -1094
c-5 -6 -7 -15 -3 -18 3 -4 -2 -9 -11 -13 -9 -3 -13 -11 -9 -17 3 -6 1 -7 -5
-3 -7 4 -12 3 -12 -3 0 -5 6 -12 13 -15 6 -4 2 -4 -11 -2 -12 2 -20 0 -17 -4
7 -11 -5 -40 -16 -40 -15 0 -10 32 11 75 11 22 18 31 15 21 -6 -19 -5 -19 15
-1 16 14 17 20 8 27 -10 6 -10 8 0 8 8 0 10 5 6 13 -5 8 -2 7 9 -2 12 -9 14
-17 7 -26z m-6003 -243 c-6 18 13 19 35 0 8 -6 18 -8 22 -4 4 4 7 3 6 -3 -5
-21 0 -36 10 -30 6 4 7 11 4 17 -4 7 -2 8 5 4 9 -6 9 -11 0 -23 -11 -13 -14
-13 -26 3 -8 11 -13 13 -13 5 0 -10 -3 -11 -13 -2 -8 6 -18 7 -22 3 -5 -4 -5
-2 -2 4 4 6 -6 10 -24 10 -20 -1 -34 -8 -40 -21 -10 -18 -9 -19 4 -2 16 20 32
23 21 5 -5 -10 -4 -10 6 -1 11 10 17 9 32 -4 10 -9 18 -12 18 -8 0 5 7 0 15
-11 15 -19 15 -19 8 1 -6 18 -5 18 10 6 9 -7 14 -18 10 -24 -3 -6 -1 -7 6 -3
6 4 9 11 6 16 -3 4 1 10 9 13 9 4 12 -2 10 -18 -1 -13 6 -31 17 -41 10 -9 16
-21 13 -26 -3 -4 0 -7 8 -6 7 2 12 -2 11 -8 -1 -7 7 -20 19 -30 14 -13 19 -14
13 -4 -10 20 5 4 33 -34 12 -15 19 -33 15 -39 -3 -5 -1 -7 4 -4 12 8 63 -62
62 -84 0 -8 -4 -6 -9 6 -6 15 -9 16 -9 4 -1 -22 10 -31 25 -18 10 8 11 5 7
-13 -4 -18 -3 -20 6 -8 8 11 11 11 11 2 0 -14 76 -92 90 -92 5 0 18 -12 30
-27 12 -16 37 -39 57 -53 35 -24 44 -48 15 -42 -9 2 -11 -1 -6 -10 4 -8 3 -10
-2 -5 -12 11 -12 30 -1 38 5 3 2 9 -6 12 -11 4 -15 0 -12 -14 2 -12 -2 -19
-11 -19 -9 0 -12 5 -8 11 5 8 1 8 -14 0 -14 -7 -23 -8 -27 -1 -4 6 -11 8 -16
5 -5 -4 -9 -1 -9 5 0 6 -4 8 -10 5 -5 -3 -10 -1 -10 4 0 6 -5 11 -11 11 -5 0
-7 -6 -3 -12 6 -10 5 -10 -8 -1 -8 7 -19 9 -23 5 -5 -4 -5 -1 -1 6 8 13 -2 16
-47 13 -16 -1 -26 2 -23 7 2 4 -10 7 -29 7 -26 -1 -32 2 -27 14 3 9 2 13 -2 9
-5 -4 -18 -3 -31 2 -15 6 -27 4 -34 -3 -9 -9 -11 -8 -5 6 5 13 2 18 -7 16 -8
-1 -22 2 -33 6 -11 5 -26 3 -38 -4 -11 -7 -17 -8 -14 -2 4 5 2 12 -3 15 -6 4
-8 -8 -5 -29 4 -33 -7 -47 -21 -26 -3 6 -14 8 -25 6 -12 -2 -18 0 -15 6 4 5 1
9 -4 9 -21 0 -26 2 -41 13 -13 10 -13 10 -1 -5 7 -10 18 -15 25 -11 6 3 7 2 3
-3 -5 -5 -14 -9 -20 -9 -5 0 -12 -6 -15 -13 -2 -8 2 -10 15 -5 10 3 15 3 11
-2 -4 -4 -3 -14 4 -22 6 -7 8 -16 4 -20 -3 -3 -6 0 -7 8 0 9 -4 6 -10 -6 -8
-18 -9 -17 -5 5 5 23 4 23 -8 8 -16 -21 -38 -24 -30 -4 7 19 -8 27 -26 14 -12
-8 -12 -9 3 -4 24 8 21 -1 -5 -15 -13 -6 -20 -8 -15 -4 4 5 -2 19 -14 31 -14
15 -20 31 -17 48 3 14 1 23 -3 20 -5 -3 -9 2 -9 11 0 9 4 14 9 11 5 -4 7 4 4
16 -4 22 -3 22 10 -2 9 -14 13 -29 9 -35 -3 -5 1 -4 10 2 8 7 19 9 23 5 5 -4
5 -1 1 6 -4 7 -11 10 -16 7 -5 -3 -11 3 -15 14 -3 11 -13 25 -22 33 -9 7 -14
8 -10 2 4 -7 0 -17 -8 -24 -8 -7 -13 -15 -10 -19 7 -13 14 -64 8 -57 -4 4 -8
16 -10 28 -2 12 -10 29 -18 38 -8 9 -15 23 -14 31 0 8 5 3 10 -10 8 -19 12
-21 24 -11 9 7 13 15 10 18 -3 3 1 12 8 20 9 13 9 14 0 8 -8 -4 -13 -2 -13 5
0 17 -59 71 -70 64 -6 -4 -7 1 -3 11 4 11 -1 22 -12 30 -10 8 -16 14 -12 14 4
0 -1 8 -10 18 -10 11 -20 18 -23 16 -3 -1 -11 4 -18 12 -7 8 -10 14 -7 14 4 0
-1 7 -9 16 -9 8 -14 20 -11 25 4 5 -2 9 -12 9 -14 0 -15 2 -5 9 11 7 11 9 -2
14 -17 7 -11 37 6 37 7 0 6 -5 -1 -13 -8 -10 -7 -14 4 -14 7 0 14 3 13 6 -3
26 17 40 62 45 19 2 41 -14 35 -24 -10 -17 21 -4 43 18 20 20 20 27 -1 23 -5
-1 -6 3 -3 8 11 17 39 5 43 -18 2 -18 0 -21 -17 -16 -12 4 -20 2 -20 -5 0 -6
5 -8 12 -4 7 4 8 3 4 -5 -4 -6 -12 -9 -17 -6 -5 4 -9 2 -9 -4 0 -5 9 -9 19 -8
11 0 18 4 15 8 -2 4 2 9 10 12 8 3 16 16 18 29 2 13 9 23 16 23 7 0 17 7 22
15 13 20 13 4 0 -20 -7 -13 -7 -21 0 -25 6 -4 9 -3 8 2 -2 4 2 8 7 8 6 0 9 -4
7 -10 -2 -5 0 -6 4 -2 13 13 13 38 1 30 -8 -5 -8 -2 0 9 7 8 9 19 5 23 -4 5
-1 5 6 1 7 -4 10 -12 7 -17 -4 -5 -1 -9 5 -9 6 0 8 -5 4 -12 -4 -7 -3 -8 4 -4
6 4 9 13 6 20 -3 7 3 19 13 27 16 13 17 12 4 -3 -14 -19 -5 -23 18 -9 8 5 10
15 6 22 -4 8 3 3 15 -11 13 -15 20 -18 17 -8z m-252 -60 c-3 -3 -11 0 -18 7
-9 10 -8 11 6 5 10 -3 15 -9 12 -12z m377 -26 c-4 -21 -4 -21 12 -1 14 17 15
17 10 2 -4 -12 -2 -17 7 -15 7 2 14 -7 15 -19 1 -13 2 -25 3 -28 2 -10 1 -15
-4 -15 -3 0 -5 3 -4 6 1 3 -12 19 -27 35 -31 32 -39 56 -19 56 7 0 10 -9 7
-21z m1383 -144 c-3 -10 -9 -12 -13 -7 -10 14 -55 39 -47 26 11 -18 0 -12 -24
13 -20 21 -20 24 -5 30 12 5 15 2 10 -10 -6 -15 -4 -15 10 -3 22 18 57 23 49
7 -3 -7 0 -5 7 5 12 16 13 15 16 -14 2 -17 1 -38 -3 -47z m-534 59 c6 10 9 11
9 2 0 -7 9 -13 20 -13 11 0 20 -6 20 -14 0 -8 4 -18 10 -21 6 -4 7 1 3 12 -5
15 -3 16 7 6 8 -7 15 -20 16 -28 2 -12 -10 -9 -49 13 -28 16 -52 34 -53 41 -2
8 -1 8 3 0 4 -8 8 -7 14 2z m13750 -35 c-6 -7 -7 -17 -3 -21 4 -5 1 -5 -5 -1
-16 9 -16 1 -1 -27 14 -25 20 -52 10 -42 -4 4 -7 10 -7 13 -1 4 -6 17 -13 30
-7 12 -9 28 -5 35 4 6 8 15 9 20 1 4 2 10 3 13 0 3 6 2 11 -1 8 -5 8 -11 1
-19z m-146 -36 c-1 -11 -4 -22 -7 -25 -4 -5 -4 34 1 43 4 8 7 -1 6 -18z m127
-81 c1 -50 -4 -55 -28 -27 -10 12 -13 18 -5 13 11 -6 13 -4 8 8 -3 9 -1 19 4
23 6 3 8 18 5 33 -5 22 -4 23 4 8 6 -9 12 -36 12 -58z m-120 39 c-9 -9 -9 -15
0 -27 7 -9 8 -13 3 -8 -4 4 -17 -1 -28 -10 -11 -10 -17 -13 -14 -6 4 6 3 15
-3 18 -8 5 -7 11 1 21 6 7 15 12 19 9 5 -3 11 -1 15 5 3 5 9 10 13 10 3 0 1
-5 -6 -12z m-14505 -244 c-3 -3 -12 -4 -19 -1 -8 3 -5 6 6 6 11 1 17 -2 13 -5z
m238 -13 c-9 -8 -36 -10 -30 -2 2 4 11 8 20 8 8 0 13 -3 10 -6z m14225 -108
c19 -3 40 -10 46 -14 6 -5 14 -6 17 -2 4 3 7 1 7 -6 0 -9 8 -11 21 -8 32 8 49
-2 49 -31 0 -14 -3 -22 -6 -19 -4 3 -15 -5 -26 -18 -11 -14 -23 -23 -28 -20
-5 3 -11 0 -13 -5 -3 -6 -4 -5 -2 2 1 7 8 12 14 10 7 -1 9 2 5 9 -4 7 -3 9 4
5 6 -3 13 -3 16 2 2 4 -6 8 -19 8 -13 0 -23 -5 -22 -10 1 -6 -4 -10 -11 -11
-7 0 -17 -7 -22 -15 -8 -12 -10 -12 -10 -1 0 10 -3 11 -14 2 -10 -9 -17 -7
-27 6 -13 17 -13 17 5 3 12 -9 17 -10 12 -3 -4 7 -16 18 -28 24 -16 9 -19 8
-13 -2 6 -8 4 -10 -5 -4 -7 4 -16 2 -21 -6 -6 -10 -9 -11 -9 -1 0 6 -5 12 -11
12 -5 0 -7 -5 -3 -12 4 -7 3 -8 -4 -4 -6 4 -9 13 -6 21 4 8 11 12 17 8 6 -4 8
0 4 10 -4 10 0 20 11 26 11 7 12 11 4 11 -7 0 -10 5 -7 10 3 6 2 10 -4 10 -6
0 -8 7 -4 16 4 10 13 14 27 9 11 -3 37 -8 56 -12z m-15117 -261 c-2 -7 4 -9
14 -5 12 5 14 3 8 -8 -8 -12 -6 -12 8 0 16 12 17 12 10 -5 -6 -17 -5 -18 12
-4 10 8 16 11 13 5 -3 -5 6 -19 21 -30 16 -12 22 -14 16 -4 -5 8 -3 7 7 -3 19
-21 33 -24 22 -5 -4 7 -3 9 2 4 5 -5 9 -14 9 -20 1 -7 7 -11 14 -9 9 2 11 -3
7 -14 -6 -15 -4 -15 11 -3 10 7 15 9 11 5 -4 -5 2 -17 14 -27 19 -17 17 -24
-5 -20 -5 1 -6 -3 -3 -8 4 -5 15 -8 26 -6 12 2 18 0 15 -5 -3 -5 -25 -8 -48
-7 -23 0 -41 -3 -40 -9 1 -5 -7 -10 -17 -10 -18 0 -18 1 -2 20 16 19 16 20 0
7 -9 -7 -21 -10 -26 -7 -5 3 -18 -3 -29 -14 -12 -10 -24 -16 -27 -13 -3 3 2
12 12 19 10 8 12 13 5 14 -31 0 -40 -22 -17 -41 8 -6 14 -8 14 -4 0 4 8 1 18
-6 15 -13 16 -12 3 4 -19 24 -7 21 23 -6 17 -16 22 -27 15 -38 -5 -7 -9 -9 -9
-3 0 6 -24 20 -54 33 -30 12 -80 46 -116 80 -55 51 -61 61 -51 79 8 15 8 22
-2 25 -9 4 -8 8 3 16 9 6 18 7 24 1 15 -15 46 -12 46 4 0 8 6 17 13 19 7 3 5
6 -5 6 -10 1 -18 5 -18 10 0 5 12 6 28 2 15 -5 26 -13 25 -19z m-142 -39 c-11
-16 -11 -15 -5 6 4 17 3 21 -6 16 -9 -6 -11 -4 -5 4 5 9 11 9 17 3 7 -7 6 -16
-1 -29z m19 -18 c0 -8 -4 -15 -10 -15 -5 0 -7 7 -4 15 4 8 8 15 10 15 2 0 4
-7 4 -15z m415 -154 c3 -5 2 -12 -3 -15 -5 -3 -9 1 -9 9 0 17 3 19 12 6z
m7340 -500 c3 -5 2 -12 -3 -15 -5 -3 -9 1 -9 9 0 17 3 19 12 6z m305 -25 c-18
-18 -10 -29 8 -13 15 14 19 14 19 3 0 -8 -5 -14 -11 -13 -6 1 -11 -8 -10 -20
0 -12 -3 -20 -8 -17 -4 3 -8 11 -8 18 0 7 -7 21 -16 32 -15 18 -15 18 -5 -3
17 -34 14 -48 -6 -32 -9 8 -14 9 -10 3 6 -10 -30 -49 -47 -49 -5 0 -10 -13
-12 -29 -2 -16 -8 -34 -14 -40 -8 -8 -9 -4 -1 16 7 19 7 29 -1 34 -7 4 -8 3
-4 -4 6 -11 -6 -17 -27 -13 -4 1 -3 -7 3 -18 13 -24 13 -41 0 -21 -12 19 -47
22 -47 4 0 -10 4 -11 14 -3 7 6 13 9 13 5 0 -3 0 -9 0 -13 1 -14 -30 -10 -40
5 -5 10 -10 12 -10 5 0 -7 -5 -13 -11 -13 -5 0 -7 5 -3 12 4 7 3 8 -4 4 -8 -5
-8 -15 -1 -33 8 -21 7 -24 -4 -15 -7 6 -23 10 -34 8 -16 -3 -20 0 -18 17 3 31
3 31 18 18 17 -13 31 -2 17 14 -7 8 -1 11 20 9 17 -1 27 2 24 7 -3 5 -9 7 -14
4 -5 -3 -12 0 -16 6 -4 7 -3 9 4 5 6 -3 14 -2 17 4 5 8 11 8 20 0 11 -9 16 -6
21 15 3 14 9 24 11 21 9 -8 31 18 25 29 -3 6 3 3 13 -5 15 -12 17 -12 10 -1
-6 11 -3 13 13 9 16 -5 19 -2 15 11 -4 9 -3 13 1 10 4 -4 18 3 30 15 23 20 86
32 66 12z m-299 -29 c-13 -34 -26 -41 -28 -14 -2 18 0 19 8 7 9 -12 10 -10 6
8 -3 12 -1 20 4 16 5 -3 9 0 9 7 0 7 2 10 5 7 3 -3 1 -17 -4 -31z m343 -19
c-3 -4 -11 -5 -19 -1 -21 7 -19 12 4 10 11 0 18 -5 15 -9z m-62 -22 c5 3 4 -3
-4 -15 -7 -12 -14 -17 -16 -11 -2 5 -8 10 -13 10 -6 0 -8 -4 -5 -9 3 -4 -7
-19 -22 -32 -15 -13 -21 -17 -15 -10 10 12 10 18 0 30 -7 8 -7 12 -1 8 6 -3
22 5 35 19 13 14 25 20 27 15 2 -6 8 -8 14 -5z m-192 -116 c0 -5 -5 -10 -11
-10 -5 0 -7 5 -4 10 3 6 8 10 11 10 2 0 4 -4 4 -10z m-320 -65 c14 -19 14 -19
-2 -6 -10 7 -18 18 -18 24 0 6 1 8 3 6 1 -2 9 -13 17 -24z m25 -19 c-12 -42
-16 -61 -18 -81 -1 -11 -9 -20 -17 -20 -9 0 -14 -8 -12 -20 2 -17 1 -17 -7 -5
-10 14 -12 13 -15 -9 0 -5 -4 -12 -8 -16 -12 -12 -2 23 11 39 7 9 10 16 7 16
-4 0 -4 5 -1 10 5 8 11 7 21 -1 17 -14 19 2 2 20 -10 11 -10 13 0 7 6 -4 13
-2 13 3 2 16 4 23 13 49 5 15 3 29 -6 40 -12 15 -11 16 5 3 12 -10 16 -22 12
-35z m39 32 c4 4 6 0 4 -8 -2 -8 5 -14 17 -15 11 0 20 5 20 12 0 6 3 14 7 18
8 9 5 -16 -5 -32 -4 -6 -3 -14 3 -18 5 -3 10 -1 10 6 0 7 3 9 6 6 4 -4 2 -12
-3 -19 -5 -7 -9 -28 -8 -45 1 -20 -4 -38 -13 -45 -13 -11 -14 -11 -7 2 5 8 11
23 12 34 3 16 1 17 -12 6 -8 -7 -12 -17 -8 -24 5 -8 3 -8 -8 0 -19 14 -41 12
-47 -5 -3 -8 0 -11 5 -8 15 9 9 -41 -6 -55 -11 -11 -12 -10 -5 2 12 22 14 39
3 46 -8 5 -13 -10 -6 -20 1 -2 -6 -13 -16 -23 -9 -11 -15 -22 -12 -25 3 -3 -3
-11 -12 -19 -16 -13 -17 -12 -4 4 7 9 10 17 6 17 -4 0 -3 6 2 13 6 6 9 20 8
30 -2 9 1 15 5 12 9 -5 22 26 25 57 1 10 5 21 10 25 4 5 5 -1 1 -13 -4 -14 -2
-21 9 -21 14 0 16 30 2 43 -4 4 -7 12 -7 18 0 6 5 4 10 -4 6 -10 10 -11 10 -2
0 23 -2 27 -13 24 -7 -2 -9 0 -5 4 4 4 2 14 -5 23 -10 14 -10 14 4 4 9 -7 19
-9 23 -5z m-74 -53 c-5 -7 -6 -16 -2 -21 4 -5 -2 -1 -14 9 -20 16 -22 16 -37
-1 -10 -10 -14 -22 -10 -25 3 -4 4 -7 1 -7 -3 0 -12 8 -19 18 -7 9 -9 14 -5
10 13 -11 37 12 29 26 -3 6 -3 8 2 4 4 -4 14 -3 22 3 11 9 11 15 1 28 -7 9 0
5 15 -8 18 -17 24 -28 17 -36z m162 2 c-16 -23 -2 -84 17 -73 4 3 8 -1 8 -9 0
-13 -3 -13 -17 0 -9 8 -19 13 -21 10 -5 -4 -4 64 1 75 1 3 2 9 1 13 -1 5 3 6
9 2 7 -4 7 -12 2 -18z m38 -1 c0 -2 -8 -10 -17 -17 -16 -13 -17 -12 -4 4 13
16 21 21 21 13z m7172 -14 c-3 -10 -1 -13 7 -8 7 5 10 2 9 -6 -2 -7 3 -12 10
-10 8 1 11 -2 8 -7 -3 -5 -8 -26 -11 -46 -2 -21 -7 -40 -10 -43 -3 -4 -3 13 0
37 6 54 -1 67 -27 44 -15 -13 -19 -14 -16 -3 2 8 -2 14 -8 13 -6 -1 -11 4 -11
12 0 8 8 12 20 10 12 -3 17 0 14 9 -3 7 1 13 8 13 8 0 11 -7 7 -15z m-7462
-27 c14 -19 14 -19 -2 -6 -10 7 -18 18 -18 24 0 6 1 8 3 6 1 -2 9 -13 17 -24z
m55 -13 c-11 -9 -14 -10 -7 -2 15 18 16 34 0 24 -7 -5 -8 -3 -3 5 5 9 10 10
18 2 8 -8 6 -16 -8 -29z m242 14 c0 -15 -21 -16 -34 -1 -4 4 -3 5 4 1 6 -3 14
-2 18 4 8 14 12 13 12 -4z m-269 -28 c-2 -7 3 -12 10 -10 17 3 15 -3 -5 -19
-10 -8 -14 -9 -10 -2 4 6 3 14 -3 18 -6 4 -8 11 -5 16 9 13 15 11 13 -3z m-27
-15 c13 -16 12 -17 -3 -4 -17 13 -22 21 -14 21 2 0 10 -8 17 -17z m304 8 c3
-5 2 -12 -3 -15 -5 -3 -9 1 -9 9 0 17 3 19 12 6z m-131 -22 c-3 -5 0 -17 7
-26 13 -15 22 -69 10 -57 -3 3 -6 14 -6 25 0 10 -4 18 -10 17 -5 -2 -8 -7 -7
-13 2 -5 0 -7 -4 -3 -9 10 -35 -12 -28 -23 9 -16 -3 -10 -17 8 -8 9 -9 14 -3
10 16 -9 51 34 48 60 0 12 3 20 8 17 4 -3 6 -10 2 -15z m47 -12 c-10 -9 -11
-8 -5 6 3 10 9 15 12 12 3 -3 0 -11 -7 -18z m34 14 c3 -5 2 -12 -3 -15 -5 -3
-9 1 -9 9 0 17 3 19 12 6z m7201 -6 c-1 -8 -5 -17 -8 -21 -5 -4 -4 16 1 34 3
9 9 -1 7 -13z m-13 -76 c-8 -8 -13 -7 -18 2 -5 8 -4 10 3 5 7 -4 12 -2 12 5 0
7 3 9 7 6 4 -4 2 -12 -4 -18z m-8133 -22 c0 -2 -10 -12 -22 -23 l-23 -19 19
23 c18 21 26 27 26 19z m3336 -56 c-7 -9 -12 -24 -11 -33 2 -10 0 -16 -3 -15
-4 1 -7 -2 -7 -8 0 -5 3 -9 7 -8 8 3 4 -24 -6 -34 -4 -4 -7 -3 -6 2 5 24 -1
27 -20 10 -20 -18 -29 -51 -10 -40 6 4 7 -1 3 -12 -5 -15 -3 -16 8 -5 7 6 17
12 23 12 5 0 2 -6 -9 -13 -11 -9 -15 -19 -11 -28 4 -8 0 -5 -8 5 -14 17 -16
17 -16 4 0 -16 16 -32 32 -33 3 0 10 -4 15 -8 4 -5 1 -7 -7 -5 -17 4 -21 -40
-6 -62 9 -12 8 -13 -4 -4 -20 13 -45 12 -45 -3 0 -6 -3 -14 -7 -18 -3 -4 -5 0
-4 9 3 19 14 31 29 31 7 0 12 14 12 30 -1 17 -6 29 -12 28 -7 -2 -10 11 -8 35
3 35 3 36 -12 17 -13 -16 -15 -17 -10 -2 5 12 1 17 -11 18 -9 0 -12 3 -5 5 7
3 10 13 7 22 -3 9 1 6 10 -8 l15 -25 -1 33 c-1 18 2 35 5 39 4 3 7 -1 7 -11 0
-9 4 -15 9 -11 6 3 8 14 6 25 -2 12 0 18 4 15 5 -2 13 1 18 8 8 11 9 20 4 43
0 4 -9 0 -18 -7 -16 -12 -17 -12 -6 2 7 8 23 15 37 15 22 0 24 -2 12 -15z m20
-26 c-1 -13 -4 -27 -7 -30 -5 -4 -4 41 0 53 4 10 8 -2 7 -23z m-249 -55 c2
-13 2 -22 1 -19 -2 2 -11 14 -21 26 -18 20 -18 21 -1 19 9 -2 19 -13 21 -26z
m-25 -24 c-3 -6 -7 -15 -7 -21 0 -5 -7 -10 -15 -10 -8 -1 -14 -7 -12 -14 1 -7
-2 -9 -9 -6 -7 5 -7 11 -1 17 6 6 8 18 5 27 -4 14 -3 14 6 1 6 -8 11 -12 12
-7 5 26 4 34 -5 47 -6 9 -1 7 11 -4 13 -10 19 -24 15 -30z m4941 19 c4 -8 3
-16 -1 -19 -4 -3 -9 4 -9 15 -2 23 3 25 10 4z m-46 -30 c0 -8 -3 -13 -5 -10
-3 3 -12 -1 -21 -7 -10 -8 -9 -4 3 10 23 26 23 26 23 7z m-4570 -10 c0 -8 -4
-12 -9 -9 -5 3 -6 10 -3 15 9 13 12 11 12 -6z m-47 1 c0 -2 -8 -10 -17 -17
-16 -13 -17 -12 -4 4 13 16 21 21 21 13z m-335 -44 c2 -12 -1 -24 -6 -27 -5
-4 -6 -12 -3 -18 4 -7 3 -8 -2 -4 -5 5 -9 12 -9 15 0 4 -4 13 -8 20 -6 8 -4
12 5 10 8 -2 12 4 10 17 -5 27 7 14 13 -13z m203 -3 c-1 -17 -4 -25 -8 -19 -4
7 -10 8 -13 3 -8 -13 7 -33 20 -25 6 4 13 16 16 27 3 11 4 1 3 -23 -1 -23 -8
-48 -16 -55 -7 -6 -10 -7 -7 -2 3 6 -3 22 -13 35 l-19 25 -10 -28 c-14 -35
-14 -34 4 -34 11 0 14 7 10 21 -5 19 -5 19 5 4 8 -13 8 -23 0 -38 -13 -25 -22
-26 -13 -2 6 15 5 15 -10 3 -9 -7 -14 -18 -11 -23 4 -6 -3 -5 -15 1 -25 14
-28 23 -3 14 15 -6 16 -5 2 12 -12 15 -12 17 -1 10 11 -6 13 -4 8 9 -4 9 -3
14 2 11 17 -10 18 30 2 50 -16 20 -16 20 7 0 l23 -19 -5 26 c-4 22 -1 26 15
23 12 -2 19 2 19 11 0 8 2 14 4 14 3 0 4 -14 4 -31z m138 19 c-1 -7 -6 -20
-11 -28 -5 -8 -10 -21 -11 -28 -2 -8 -6 -17 -10 -20 -4 -4 -5 0 -1 9 3 9 0 22
-6 28 -13 13 -19 43 -6 35 5 -3 7 -9 4 -14 -3 -5 -1 -11 4 -14 9 -6 24 9 27
27 3 14 4 17 8 17 2 0 3 -6 2 -12z m-388 -41 c-1 -2 3 -11 10 -20 9 -10 10
-17 2 -22 -6 -4 -10 -3 -9 2 1 4 0 10 -1 13 -5 14 -8 41 -3 37 2 -3 3 -7 1
-10z m4859 -9 c-3 -8 -6 -5 -6 6 -1 11 2 17 5 13 3 -3 4 -12 1 -19z m-4686
-15 c13 -16 12 -17 -3 -4 -17 13 -22 21 -14 21 2 0 10 -8 17 -17z m172 -18 c4
-8 3 -16 -1 -19 -4 -3 -9 4 -9 15 -2 23 3 25 10 4z m-356 -20 c0 -8 -4 -12 -9
-9 -5 3 -6 10 -3 15 9 13 12 11 12 -6z m187 -63 c3 -5 -1 -9 -9 -9 -8 0 -12 4
-9 9 3 4 7 8 9 8 2 0 6 -4 9 -8z m1322 -760 c-17 -16 -18 -16 -5 5 7 12 15 20
18 17 3 -2 -3 -12 -13 -22z m114 18 c0 -5 -10 -15 -22 -21 l-23 -12 20 21 c23
24 25 25 25 12z m-68 -13 c-7 -8 -7 -18 -2 -27 13 -21 12 -38 -1 -20 -9 12
-10 12 -7 1 7 -25 28 -24 28 1 0 18 2 20 9 8 6 -8 8 -17 6 -21 -3 -3 4 -14 15
-24 11 -10 20 -15 20 -10 0 4 8 1 18 -6 15 -12 16 -12 5 2 -7 9 -9 20 -5 25 4
4 0 3 -9 -4 -13 -10 -19 -9 -28 2 -10 12 -8 16 10 21 17 6 27 1 41 -16 10 -13
16 -17 13 -8 -3 9 1 21 9 28 8 7 12 19 9 27 -3 8 0 14 6 14 6 0 10 -11 9 -24
-1 -14 -5 -23 -8 -21 -3 2 -6 -7 -6 -20 0 -14 2 -22 6 -19 3 3 5 10 5 16 0 6
8 12 18 14 9 1 17 -2 17 -7 0 -6 5 -7 12 -3 8 5 9 2 5 -9 -3 -9 -2 -19 2 -21
5 -3 8 4 7 15 0 11 -7 24 -15 28 -8 5 -11 16 -7 26 6 16 8 16 31 1 29 -19 55
-21 55 -4 0 6 3 8 6 5 4 -4 1 -13 -6 -22 -7 -8 -9 -15 -6 -15 4 0 2 -10 -4
-22 -11 -22 -10 -22 4 -4 11 13 16 15 16 6 0 -8 8 -4 20 10 11 13 20 25 20 28
0 3 -9 -3 -20 -13 -12 -11 -20 -13 -20 -6 0 6 7 14 15 17 13 5 13 9 3 22 -11
13 -11 14 0 8 8 -5 22 -22 33 -40 18 -29 19 -29 17 -6 -2 14 2 25 10 26 25 3
27 5 12 14 -9 5 -19 5 -26 -1 -8 -6 -16 -3 -25 8 -12 16 -12 17 2 6 9 -7 19
-10 22 -6 11 11 57 12 57 2 0 -6 -4 -8 -9 -5 -5 4 -6 -4 -3 -16 5 -19 7 -20
10 -5 4 19 17 23 27 7 3 -5 12 -10 18 -10 7 0 6 4 -3 10 -12 8 -11 10 6 10 17
0 20 -5 16 -25 -3 -20 -7 -23 -17 -15 -11 9 -12 6 -9 -12 5 -20 4 -21 -6 -5
-6 9 -16 17 -23 17 -8 0 -9 -3 -1 -8 6 -4 13 -15 17 -24 4 -12 12 -15 23 -11
10 3 15 2 12 -3 -4 -5 5 -9 18 -9 13 0 24 6 24 13 0 18 25 15 41 -5 8 -9 9
-14 2 -10 -6 4 -13 4 -16 0 -2 -5 -2 -2 -1 5 2 6 -1 12 -6 12 -10 0 -14 -15
-11 -34 1 -5 -5 -3 -14 4 -8 7 -19 10 -23 6 -4 -4 1 -12 11 -17 9 -6 17 -15
17 -22 0 -9 -2 -9 -8 0 -5 9 -12 6 -21 -10 -13 -21 -13 -21 4 -7 17 14 18 13
12 -3 -4 -10 -7 -21 -7 -23 0 -3 -4 -3 -9 1 -6 3 -8 -5 -5 -19 5 -27 -12 -30
-42 -6 -18 14 -18 14 -1 -6 19 -23 23 -39 5 -28 -7 4 -8 3 -4 -5 4 -6 12 -9
17 -6 5 4 9 -1 9 -9 0 -10 -6 -13 -17 -10 -14 5 -15 4 -4 -4 15 -11 4 -21 -22
-17 -9 2 -15 0 -12 -4 4 -7 46 -6 103 1 6 1 12 7 12 14 0 7 5 16 12 20 7 4 8
3 4 -4 -4 -7 -1 -12 6 -12 8 0 6 -5 -5 -11 -9 -6 -15 -14 -12 -19 3 -5 -3 -7
-15 -5 -24 5 -32 -6 -18 -25 8 -12 9 -11 4 5 -6 19 -6 19 8 1 17 -20 6 -49
-27 -74 -14 -11 -15 -18 -6 -35 10 -21 10 -21 -5 -3 -14 18 -14 21 1 38 15 17
15 18 0 18 -10 0 -17 -5 -17 -11 0 -6 -7 -8 -16 -5 -8 3 -12 2 -9 -3 3 -5 1
-12 -5 -16 -5 -3 -10 0 -10 7 0 8 -5 6 -11 -5 -6 -10 -8 -21 -5 -24 3 -4 6 -1
6 4 0 19 34 7 46 -15 6 -12 15 -19 20 -14 4 4 3 0 -4 -9 -7 -9 -24 -15 -39
-13 -36 3 -35 2 -28 14 5 8 11 8 19 1 7 -6 16 -8 19 -4 13 13 7 18 -22 18 -20
1 -28 -4 -26 -15 2 -8 -4 -25 -11 -37 -8 -13 -12 -23 -8 -23 3 0 -1 -10 -9
-23 -9 -14 -12 -29 -7 -37 24 -39 19 -40 -524 -40 -286 0 -516 4 -511 8 6 4
10 17 9 30 -1 12 3 22 7 22 5 0 8 -10 6 -21 -1 -14 4 -23 16 -24 9 -2 15 1 11
6 -3 5 -10 6 -16 3 -6 -4 -8 1 -5 12 3 11 9 34 12 53 5 24 10 30 16 20 5 -8 3
-16 -4 -21 -9 -6 -9 -8 1 -8 22 0 27 -2 42 -13 13 -10 13 -10 3 4 -7 9 -9 19
-5 23 4 4 2 6 -5 4 -6 -2 -11 0 -12 5 -1 4 1 6 3 5 2 -2 13 6 25 16 20 18 20
20 4 39 -11 13 -12 17 -4 12 11 -6 13 -4 8 8 -4 12 -1 17 9 17 11 0 14 5 10
16 -5 13 -4 14 7 5 12 -9 14 -6 12 14 -2 14 1 23 6 19 5 -3 6 -10 3 -16 -4 -7
-2 -8 4 -4 6 4 9 13 6 21 -3 8 1 24 10 37 9 12 16 17 16 11 0 -7 -4 -15 -10
-18 -5 -3 -10 -11 -10 -18 0 -18 28 27 36 57 5 21 9 24 15 14 6 -9 9 -6 9 12
0 20 2 22 11 10 9 -12 10 -11 6 7 -3 12 -2 21 2 20 3 -1 6 1 6 4 0 16 40 49
53 44 13 -5 13 -3 1 12 -9 11 -10 14 -1 9 7 -4 12 -2 12 4 0 6 4 8 10 5 5 -3
7 0 4 8 -3 8 0 18 7 23 8 5 10 3 4 -6 -5 -9 -4 -11 3 -6 7 4 12 12 12 17 0 6
7 17 15 25 18 18 20 4 3 -16 -7 -8 -3 -6 9 4 13 10 20 23 17 27 -3 5 3 6 13 2
16 -6 17 -5 3 12 -8 10 -10 16 -3 12 7 -4 16 0 22 10 9 15 10 14 7 -9 -5 -28
1 -41 16 -32 5 3 4 11 -2 19 -8 9 -8 15 0 20 5 3 10 0 10 -7 0 -10 2 -10 9 1
5 8 16 11 25 8 8 -3 18 -2 21 4 4 5 11 7 16 4 5 -4 6 2 2 11 -5 13 -3 16 10
11 9 -3 17 -2 17 4 0 5 11 22 25 37 14 15 25 21 25 14 0 -6 -4 -12 -10 -12 -5
0 -10 -5 -10 -11 0 -6 7 -8 16 -5 13 5 14 3 7 -6 -12 -15 -13 -49 -2 -42 5 2
6 11 2 19 -3 8 -1 15 5 15 6 0 13 -6 15 -12 5 -12 11 17 8 35 -1 5 3 6 9 2 6
-3 7 -11 4 -17 -5 -7 -2 -8 5 -4 7 5 10 14 7 21 -2 7 1 18 7 24 15 15 22 14 9
-2z m111 -36 c-4 -17 -8 -19 -14 -9 -12 18 -11 31 1 23 6 -3 10 -1 10 6 0 7 2
10 5 8 2 -3 2 -15 -2 -28z m-246 4 c0 -8 -3 -13 -5 -10 -3 3 -13 -7 -23 -21
-10 -16 -19 -22 -23 -15 -4 6 -2 11 4 11 7 0 9 7 6 16 -3 8 -2 13 3 10 5 -3
14 1 21 9 15 19 17 19 17 0z m184 -8 c-10 -9 -11 -8 -5 6 3 10 9 15 12 12 3
-3 0 -11 -7 -18z m-252 -29 c-8 -15 -13 -17 -25 -7 -8 6 -14 14 -14 16 0 3 8
-1 17 -8 14 -12 16 -12 11 2 -4 9 -1 16 7 16 11 0 11 -5 4 -19z m694 10 c-4
-7 -8 -17 -8 -23 0 -10 -8 -15 -25 -15 -5 0 0 11 12 25 23 27 34 33 21 13z
m57 -93 c-7 -8 -16 -12 -21 -9 -5 3 -8 -3 -6 -13 1 -10 -2 -19 -7 -20 -16 -2
-27 -33 -21 -53 4 -11 11 -18 16 -14 6 4 6 10 -1 19 -8 9 -3 17 17 30 20 13
24 14 16 3 -7 -8 -10 -18 -6 -22 4 -4 -1 -4 -11 0 -15 6 -17 4 -10 -7 12 -20
14 -40 3 -33 -5 3 -9 0 -9 -6 0 -6 -5 -8 -12 -4 -8 5 -9 2 -5 -10 4 -10 3 -15
-3 -11 -6 3 -7 17 -4 30 3 12 1 26 -4 29 -7 4 -1 24 15 51 13 25 29 43 33 40
5 -3 11 -1 15 5 3 5 9 10 12 10 3 0 0 -7 -7 -15z m20 -9 c0 -2 -8 -10 -17 -17
-16 -13 -17 -12 -4 4 13 16 21 21 21 13z m-8 -97 c-21 -24 -26 -24 -13 0 6 10
7 21 3 25 -3 4 1 4 10 1 15 -6 15 -8 0 -26z m-88 -32 c-1 -21 -6 -31 -18 -33
-13 -2 -15 1 -6 11 7 8 9 23 6 33 -4 12 -1 19 6 19 8 0 13 -12 12 -30z m92 -2
c-1 -8 -6 -18 -11 -22 -4 -4 -5 -2 -1 5 4 7 2 12 -6 12 -9 0 -9 3 2 10 19 12
19 13 16 -5z m-2210 -80 c-4 -28 -22 -37 -37 -18 -13 16 -12 17 4 4 9 -7 18
-11 18 -7 1 3 3 11 4 16 1 6 3 12 4 15 3 12 9 3 7 -10z m244 -109 c0 -2 -7 -7
-16 -10 -8 -3 -12 -2 -9 4 6 10 25 14 25 6z m-46 -35 c19 -7 19 -8 -2 -13 -12
-4 -20 -2 -17 2 3 5 -1 11 -7 13 -7 3 -8 5 -3 6 6 0 19 -4 29 -8z m861 -3 c3
-3 -1 -10 -9 -17 -11 -9 -15 -7 -19 8 -4 18 13 24 28 9z m1052 -13 c0 -8 -3
-13 -5 -10 -3 3 -15 -3 -26 -12 -15 -13 -14 -10 3 10 29 32 28 31 28 12z
m-1950 -15 c-1 -10 -3 -17 -6 -15 -6 7 -31 -15 -31 -27 0 -6 8 -4 17 3 10 8
14 9 10 2 -4 -6 -3 -14 3 -18 5 -3 10 -11 10 -18 0 -6 -6 -2 -14 8 -13 18 -14
18 -24 -2 -6 -11 -8 -23 -4 -27 3 -4 -1 -4 -11 -1 -15 6 -15 8 -1 23 15 15 15
16 -2 23 -11 4 -13 8 -6 8 7 1 10 6 6 13 -4 6 -3 8 3 5 13 -8 36 17 25 28 -4
5 -1 5 6 1 6 -4 12 -2 12 3 0 6 2 11 4 11 3 0 4 -9 3 -20z m1896 1 c-8 -32 -7
-36 5 -33 8 1 11 -2 8 -7 -8 -13 -42 -6 -38 9 1 6 -2 9 -8 5 -6 -3 -8 -10 -5
-15 3 -5 1 -12 -5 -15 -12 -8 -3 -46 14 -57 6 -4 1 -6 -12 -5 -12 1 -21 6 -18
13 2 6 0 17 -4 24 -5 8 -3 22 5 34 8 12 15 26 16 31 4 25 12 33 27 30 9 -1 16
-8 15 -14z m-1834 6 c-2 -1 -11 -8 -21 -15 -12 -10 -18 -10 -24 -1 -4 7 -3 9
4 5 6 -3 13 -2 17 4 3 5 11 10 17 10 6 0 9 -1 7 -3z m1818 -75 c-15 -3 -16 -6
-6 -20 12 -16 12 -16 -5 0 -21 19 -13 40 12 30 16 -6 16 -7 -1 -10z m-1955
-21 c16 -18 15 -20 -1 -18 -9 0 -17 9 -17 19 0 10 1 18 1 18 0 0 8 -9 17 -19z
m-2160 -2855 c6 4 8 2 4 -4 -3 -6 -2 -13 4 -17 6 -4 8 -11 5 -16 -4 -5 -1 -9
6 -9 7 0 9 8 6 21 -3 12 -3 18 0 15 4 -3 12 -1 19 4 7 7 6 -2 -4 -24 -11 -24
-20 -32 -31 -29 -13 5 -14 3 -3 -8 15 -16 16 -29 1 -29 -5 0 -7 6 -4 13 4 6 0
4 -8 -5 -8 -10 -17 -15 -20 -11 -4 3 -7 -1 -7 -9 0 -19 -66 -71 -80 -63 -6 3
-10 0 -10 -7 0 -8 -14 -19 -30 -25 -21 -8 -28 -8 -24 -1 5 7 2 8 -5 4 -7 -5
-10 -14 -7 -22 4 -11 1 -12 -13 -4 -14 7 -20 6 -25 -5 -3 -8 -14 -12 -28 -10
-23 4 -23 4 -3 -11 19 -15 19 -15 -8 -10 -15 3 -25 1 -22 -4 3 -4 -2 -11 -11
-14 -12 -5 -15 -2 -10 11 4 12 -1 9 -15 -7 -11 -14 -18 -20 -15 -14 3 6 -1 11
-8 11 -8 0 -12 -10 -10 -24 1 -13 -2 -21 -7 -17 -5 3 -9 -1 -9 -8 0 -10 -2
-10 -8 -1 -10 16 -64 23 -79 10 -7 -5 -13 -6 -13 -2 0 4 -7 2 -15 -5 -8 -7
-15 -9 -15 -5 0 4 -6 3 -12 -3 -7 -5 -24 -8 -38 -7 -14 2 -28 4 -32 4 -4 1 -5
8 -2 16 4 8 10 12 15 9 5 -3 6 -11 3 -17 -5 -9 -3 -8 6 0 9 8 18 9 25 3 8 -7
12 -5 12 4 0 8 -8 13 -19 11 -10 -2 -18 2 -18 10 0 10 -9 13 -30 10 -17 -2
-28 0 -25 5 3 5 11 7 18 5 14 -5 26 2 47 30 15 19 14 19 -10 2 -28 -19 -40
-21 -40 -7 0 6 3 9 8 8 4 -2 7 2 7 7 0 6 -4 9 -10 7 -5 -2 -4 3 4 10 10 10 15
10 18 1 2 -7 11 -9 19 -6 11 4 12 9 3 19 -9 11 -8 14 1 14 7 0 10 7 6 16 -3 9
-2 12 5 9 6 -4 8 -13 5 -21 -3 -8 -2 -14 3 -14 9 0 24 38 22 53 -1 5 3 6 9 2
6 -3 7 -11 4 -17 -4 -6 2 -6 15 1 19 11 24 25 24 73 0 10 3 15 7 13 4 -3 11 2
14 11 5 14 9 14 23 3 15 -12 16 -12 10 4 -5 12 -3 16 5 11 8 -5 9 -1 4 12 -5
14 -4 16 4 8 9 -9 9 -17 1 -32 -7 -13 -7 -23 -2 -27 9 -5 20 19 25 51 1 7 5
16 9 19 4 3 5 2 2 -2 -3 -3 1 -13 8 -21 7 -10 8 -13 1 -9 -7 4 -14 -2 -17 -13
-6 -24 -4 -24 34 -5 16 9 27 21 23 26 -4 8 -9 7 -14 -1 -5 -9 -9 -8 -13 2 -3
9 3 14 18 14 17 0 22 -5 20 -18 -2 -10 1 -21 7 -24 6 -4 8 -3 5 2 -3 6 -2 16
3 24 5 9 4 20 -3 30 -10 13 -10 13 4 3 12 -10 18 -10 29 0 8 6 6 2 -3 -10 -11
-12 -14 -24 -9 -27 6 -3 12 1 16 9 3 8 10 15 16 15 6 0 8 -6 5 -12 -4 -7 -1
-6 7 3 15 18 52 34 43 19 -9 -14 9 -12 23 2 16 16 44 20 35 5 -4 -7 1 -6 10 2
11 8 17 9 17 3 0 -7 7 -9 17 -5 12 5 14 3 8 -7 -5 -9 -4 -11 4 -6 6 4 9 11 6
16 -3 5 0 12 6 16 8 5 10 -1 6 -22 -5 -26 -4 -27 8 -10 8 10 11 25 9 34 -5 14
-4 14 6 -1 6 -9 16 -14 22 -11z m-7989 -71 c-3 -8 -9 -15 -14 -15 -5 0 -9 -7
-9 -16 0 -13 3 -14 14 -5 11 9 15 9 20 -1 3 -7 3 -2 0 12 -4 14 -3 22 1 17 5
-4 17 1 27 10 19 17 81 26 72 11 -3 -4 -15 -6 -26 -4 -22 3 -58 -21 -58 -37 0
-5 6 -4 13 2 8 6 17 8 20 4 4 -3 7 -1 7 5 0 16 20 11 40 -8 8 -9 11 -10 7 -4
-5 7 -1 21 9 33 17 19 19 19 36 4 10 -8 15 -19 13 -24 -3 -4 -1 -11 5 -14 6
-4 9 -1 8 5 -2 7 12 21 30 31 18 11 31 15 28 10 -3 -5 1 -14 8 -20 11 -9 16
-9 22 0 4 7 3 9 -3 6 -5 -3 -10 0 -10 8 0 11 4 12 14 4 7 -6 13 -8 13 -3 0 5
7 1 14 -9 13 -17 14 -17 21 0 6 16 8 16 18 3 7 -9 18 -15 25 -14 6 1 17 2 23
3 5 0 7 7 4 14 -4 6 0 3 9 -7 8 -10 13 -23 9 -29 -3 -6 -1 -7 5 -4 5 4 8 17 5
30 -5 22 -5 22 11 2 10 -11 15 -14 11 -7 -3 6 -1 12 6 12 7 0 9 -8 6 -21 -4
-16 -3 -18 9 -8 7 6 12 15 9 18 -2 4 2 8 10 8 11 0 12 -5 3 -21 -10 -19 -10
-20 6 -7 14 12 19 12 25 2 6 -10 10 -9 14 4 4 9 3 13 -2 10 -5 -3 -12 -1 -15
4 -6 10 12 10 29 0 6 -4 18 -5 28 -4 9 2 15 -1 11 -6 -3 -5 -10 -6 -16 -3 -7
4 -8 2 -4 -4 5 -8 13 -8 32 0 20 10 27 8 39 -8 13 -16 14 -16 9 -1 -5 13 -2
16 10 11 9 -3 14 -10 11 -14 -3 -5 4 -6 15 -3 11 3 28 -1 37 -8 14 -12 16 -12
8 1 -5 9 1 7 15 -5 13 -11 20 -14 15 -6 -6 11 -5 12 6 5 8 -5 22 -9 32 -10 35
-3 38 -4 33 -12 -3 -5 8 -6 25 -4 19 3 29 0 29 -9 0 -7 3 -9 7 -6 3 4 13 1 21
-6 13 -10 14 -9 7 3 -7 11 -2 10 19 -4 18 -11 25 -13 21 -5 -5 8 2 5 15 -6 13
-11 20 -14 16 -7 -6 10 -1 10 26 -1 38 -16 42 -17 64 -17 8 0 13 -4 10 -8 -3
-5 1 -9 9 -9 8 0 11 5 8 10 -3 6 -1 7 5 3 7 -4 22 -9 34 -11 12 -3 24 -8 27
-12 3 -5 15 -8 26 -7 11 0 29 -7 39 -15 11 -9 17 -11 13 -5 -3 6 0 11 8 11 8
0 12 -4 9 -9 -4 -5 1 -8 9 -6 9 2 23 -6 31 -17 10 -13 14 -14 11 -4 -4 10 0
16 9 16 8 0 12 -5 9 -10 -4 -6 0 -8 11 -4 10 4 24 -1 36 -13 19 -19 25 -17 21
4 -1 5 5 4 13 -4 18 -14 22 -25 6 -15 -6 3 -13 -1 -16 -9 -3 -9 -11 -13 -18
-9 -6 3 -3 -3 7 -14 18 -21 23 -38 8 -29 -4 3 -7 -6 -5 -20 2 -21 0 -23 -12
-13 -7 6 -11 16 -8 21 3 5 -3 4 -14 -3 -12 -8 -19 -20 -16 -32 3 -19 2 -19
-20 2 -21 20 -36 19 -36 -1 0 -5 5 -6 12 -2 7 5 8 3 3 -6 -6 -10 -11 -9 -21 4
-8 12 -19 16 -33 11 -17 -5 -20 -3 -15 12 3 10 -1 8 -11 -7 l-16 -25 5 24 5
23 -21 -21 c-11 -12 -23 -20 -26 -16 -4 3 0 10 8 15 11 7 10 9 -7 7 -12 0 -20
-4 -17 -8 2 -4 0 -10 -6 -14 -5 -3 -10 -1 -10 6 0 8 -4 8 -15 -1 -13 -11 -14
-10 -10 2 4 9 0 15 -9 15 -8 0 -13 -4 -10 -9 3 -4 0 -8 -5 -8 -6 0 -11 5 -11
10 0 6 -4 10 -10 10 -5 0 -7 -8 -3 -17 5 -15 3 -14 -10 2 -14 17 -16 18 -17 3
0 -21 -16 -32 -26 -17 -4 8 -3 9 4 5 7 -4 12 -3 12 2 0 6 -7 12 -15 16 -10 3
-15 -1 -15 -12 0 -14 -2 -15 -9 -2 -6 8 -7 18 -4 24 3 5 1 6 -6 2 -6 -4 -9
-11 -6 -16 3 -5 1 -11 -5 -15 -5 -3 -10 1 -10 9 0 8 -5 18 -12 22 -7 4 -8 3
-4 -4 4 -7 2 -12 -4 -12 -6 0 -8 -5 -4 -12 5 -9 3 -9 -9 1 -9 7 -14 18 -10 25
4 7 1 7 -8 -1 -12 -10 -18 -10 -29 0 -10 9 -10 7 0 -7 14 -18 14 -19 -6 -8
-16 8 -24 8 -33 -1 -10 -9 -11 -9 -6 3 4 11 -1 16 -14 16 -11 0 -17 -4 -15 -8
3 -4 0 -8 -5 -8 -6 0 -11 5 -11 10 0 6 -10 2 -22 -9 -16 -16 -25 -18 -35 -9
-8 6 -11 18 -8 27 5 12 2 12 -13 -2 -24 -22 -38 -22 -21 0 13 17 13 17 -13 0
-26 -16 -28 -16 -37 1 -10 16 -10 16 -11 0 0 -9 -4 -19 -9 -23 -6 -3 -8 3 -6
15 2 11 -1 23 -7 26 -7 4 -8 2 -4 -4 4 -7 2 -12 -4 -12 -6 0 -9 -4 -6 -9 4 -5
-1 -8 -9 -7 -21 3 -28 13 -14 22 8 5 10 3 4 -7 -5 -8 -4 -10 0 -6 5 4 10 14
11 23 2 12 -1 13 -12 3 -13 -10 -18 -6 -15 13 1 12 -41 -1 -63 -19 -13 -11
-16 -12 -10 -3 15 20 14 47 -3 47 -9 0 -10 -4 -2 -13 7 -8 6 -14 -2 -20 -8 -4
-9 -3 -5 4 4 7 1 12 -8 12 -8 0 -18 5 -22 12 -5 7 -3 8 7 3 12 -8 12 -6 0 8
-15 18 -26 23 -16 7 3 -5 1 -10 -5 -10 -6 0 -8 -5 -4 -12 5 -9 2 -9 -9 1 -9 7
-17 19 -17 25 0 6 5 4 11 -4 9 -13 10 -13 6 0 -2 8 -10 14 -16 12 -6 -1 -11 3
-11 8 0 7 -6 7 -19 1 -15 -9 -20 -7 -24 11 -4 12 -9 19 -13 15 -4 -4 -13 -2
-20 4 -8 7 -14 6 -20 -2 -5 -8 -3 -9 6 -4 9 5 11 4 6 -4 -4 -6 -12 -9 -17 -6
-5 4 -9 1 -9 -6 0 -7 -3 -10 -6 -7 -3 4 0 17 7 30 12 22 11 22 -6 8 -17 -14
-18 -13 -12 2 3 10 1 20 -5 24 -6 4 -8 3 -5 -3 4 -6 0 -18 -7 -29 -13 -17 -13
-16 -11 9 2 15 -1 25 -5 22 -5 -3 -11 -1 -15 5 -4 6 -10 8 -15 5 -5 -3 -11 -1
-15 5 -4 6 -10 8 -15 5 -5 -3 -11 -1 -15 5 -4 7 -12 7 -25 0 -21 -11 -36 2
-24 22 4 6 3 8 -3 5 -6 -4 -14 0 -17 9 -3 8 -11 12 -17 9 -6 -4 -8 -13 -5 -21
3 -7 1 -16 -5 -19 -5 -4 -9 -3 -8 2 1 4 1 22 0 38 -1 24 -3 27 -12 15 -9 -12
-10 -11 -6 6 3 16 0 20 -17 18 -12 -1 -24 -3 -28 -3 -5 -1 -8 -5 -8 -11 0 -5
8 -7 18 -4 14 5 15 4 2 -5 -22 -15 -42 14 -30 44 5 13 6 26 2 30 -4 4 0 5 8 3
8 -2 14 3 12 10 -1 8 2 11 7 7 6 -3 8 -12 4 -20z m-46 -17 c2 -17 0 -19 -7 -8
-5 8 -6 18 -4 22 8 12 10 10 11 -14z m-37 -3 c-5 -7 -9 -14 -7 -16 1 -2 0 -3
-2 -1 -11 7 -7 29 5 29 9 0 11 -4 4 -12z m7597 -37 c1 -20 -2 -27 -6 -17 -3 9
-14 15 -24 13 -9 -1 -15 2 -11 7 3 5 10 7 15 4 5 -4 12 1 15 9 9 23 11 20 11
-16z m-7502 -37 c3 -5 2 -12 -3 -15 -5 -3 -9 1 -9 9 0 17 3 19 12 6z m66 -44
c-10 -9 -11 -8 -5 6 3 10 9 15 12 12 3 -3 0 -11 -7 -18z m78 -20 c0 -8 -2 -8
-6 1 -4 10 -8 10 -21 0 -15 -12 -16 -11 -3 4 14 19 32 15 30 -5z m18 -9 c-3
-8 -6 -5 -6 6 -1 11 2 17 5 13 3 -3 4 -12 1 -19z m42 -2 c9 -11 9 -16 0 -22
-8 -5 -9 -3 -4 6 6 10 4 12 -8 7 -11 -4 -14 -2 -10 9 6 17 8 17 22 0z m7568
-9 c0 -8 -6 -14 -14 -14 -9 0 -10 4 -2 14 6 7 12 13 14 13 1 0 2 -6 2 -13z
m-7476 -50 c-10 -9 -11 -8 -5 6 3 10 9 15 12 12 3 -3 0 -11 -7 -18z m26 1 c-3
-8 -6 -5 -6 6 -1 11 2 17 5 13 3 -3 4 -12 1 -19z m7340 -20 c-3 -8 -6 -5 -6 6
-1 11 2 17 5 13 3 -3 4 -12 1 -19z m-277 8 c0 -11 -19 -15 -25 -6 -3 5 1 10 9
10 9 0 16 -2 16 -4z m-5970 -31 c1 11 4 14 7 7 2 -6 9 -10 14 -6 18 11 9 -8
-13 -25 -17 -14 -18 -18 -5 -18 9 0 14 4 11 9 -9 14 23 9 35 -6 10 -12 9 -14
-6 -11 -22 3 -45 -14 -36 -28 3 -6 1 -7 -6 -3 -6 4 -9 12 -6 17 4 5 1 9 -5 9
-7 0 -9 8 -5 19 3 11 1 22 -5 26 -6 3 -7 11 -3 18 4 7 9 4 14 -9 7 -18 8 -18
9 1z m57 -2 c-4 -3 -1 -13 6 -22 11 -14 10 -14 -5 -2 -16 12 -16 31 -1 31 4 0
3 -3 0 -7z m-947 -17 c0 -2 -8 -10 -17 -17 -16 -13 -17 -12 -4 4 13 16 21 21
21 13z m3105 -99 c4 5 5 2 1 -5 -5 -8 0 -11 16 -9 13 2 23 9 23 15 0 6 4 14 8
19 5 4 8 3 7 -2 -5 -22 1 -27 18 -14 14 11 15 11 5 -1 -21 -23 -15 -35 8 -14
11 10 19 14 17 9 -2 -6 2 -12 7 -13 6 -2 16 -9 24 -15 12 -10 14 -9 8 5 -3 10
-2 20 4 23 5 4 9 3 8 -2 -3 -20 2 -34 11 -28 6 4 7 12 4 18 -4 7 -3 8 2 4 5
-5 10 -13 10 -18 3 -22 5 -23 14 -9 7 11 10 11 10 2 0 -7 5 -10 10 -7 6 4 7
11 4 17 -4 7 -2 8 5 4 9 -6 9 -11 1 -21 -8 -9 -8 -15 0 -20 5 -3 10 -2 10 2 0
5 7 18 16 29 15 18 15 18 5 -3 -14 -27 -14 -36 -1 -28 6 4 7 -1 3 -11 -4 -12
-3 -15 6 -10 6 4 11 4 10 -1 -1 -4 0 -10 1 -13 2 -3 4 -24 4 -48 2 -34 0 -39
-8 -25 -14 24 -16 44 -5 37 5 -3 9 2 9 12 0 13 -3 14 -13 5 -8 -6 -18 -7 -22
-3 -5 4 -5 1 -1 -6 5 -8 1 -11 -13 -9 -11 2 -23 6 -27 9 -3 4 -12 4 -20 1 -12
-4 -11 -8 6 -20 21 -15 18 -39 -3 -27 -7 4 -8 3 -4 -1 10 -12 39 -16 32 -5 -3
5 -1 11 4 14 5 4 12 -2 14 -11 2 -10 3 -8 2 5 -1 13 2 21 9 19 6 -2 10 -15 9
-28 -2 -21 -2 -21 5 -5 8 18 9 18 15 2 6 -15 10 -16 23 -5 12 10 15 10 12 -1
-2 -7 3 -15 11 -18 10 -3 11 0 5 9 -7 12 -5 12 9 1 9 -8 22 -12 29 -10 7 3 24
-1 38 -9 17 -8 26 -9 29 -2 2 6 15 -4 30 -22 19 -22 28 -27 28 -16 0 9 -4 14
-8 11 -4 -2 -10 0 -14 5 -3 6 4 8 16 6 23 -5 39 -15 23 -15 -5 0 -10 -9 -11
-21 -2 -18 0 -19 15 -7 15 12 16 11 3 -5 -10 -12 -11 -21 -4 -25 14 -10 9 -52
-8 -62 -7 -5 -15 -21 -16 -35 -2 -23 0 -25 13 -14 9 7 11 15 5 18 -6 4 -2 12
9 19 17 10 18 9 13 -6 -4 -9 -14 -26 -22 -38 -14 -18 -19 -19 -29 -7 -18 19
-34 6 -26 -20 6 -20 6 -20 -10 -4 -19 19 -31 23 -21 7 3 -5 4 -10 1 -10 -2 0
-12 -3 -22 -7 -13 -5 -15 -3 -9 8 8 12 6 12 -8 0 -9 -7 -17 -11 -17 -8 0 3
-12 0 -27 -8 -15 -8 -30 -12 -35 -9 -4 3 -5 -2 -1 -11 4 -13 8 -14 14 -4 4 8
10 11 13 8 3 -3 -6 -16 -21 -30 -15 -13 -22 -17 -15 -8 10 13 9 19 -3 29 -13
11 -14 10 -9 -4 4 -9 3 -16 -2 -15 -22 4 -35 -2 -28 -12 4 -8 9 -7 15 2 5 8 9
9 9 3 0 -6 -7 -17 -15 -24 -9 -7 -15 -8 -15 -2 0 15 -32 24 -44 12 -8 -8 -6
-9 8 -4 13 5 17 4 12 -4 -4 -7 -4 -18 0 -24 16 -25 11 -48 -9 -48 -16 0 -17 2
-7 16 11 12 10 18 -5 32 -18 16 -18 16 -6 0 7 -9 10 -22 6 -29 -6 -8 -10 -7
-16 2 -6 10 -9 11 -9 2 0 -7 9 -18 20 -25 11 -7 20 -16 20 -20 0 -11 -23 -5
-32 7 -4 6 -13 10 -19 10 -7 0 -14 6 -17 14 -3 9 0 11 8 6 9 -6 11 -4 5 4 -5
9 -15 3 -35 -21 -15 -18 -26 -36 -24 -39 2 -4 -3 -12 -11 -19 -13 -11 -15 -9
-12 8 2 12 12 31 22 44 19 22 18 22 -8 -1 -15 -14 -27 -21 -27 -17 0 4 -6 4
-12 -1 -24 -14 -40 -12 -34 5 5 15 4 14 -8 -1 -13 -16 -15 -17 -30 -2 -9 9
-13 21 -10 27 4 7 2 8 -4 4 -13 -8 1 -46 17 -46 4 0 7 -12 7 -27 -1 -16 2 -33
6 -39 5 -7 -5 -10 -30 -8 -20 1 -38 3 -39 4 -2 1 -6 3 -10 4 -31 7 -53 19 -53
28 0 7 4 7 13 -1 8 -6 17 -8 20 -4 4 3 7 0 7 -7 0 -9 5 -8 13 5 15 20 34 5 21
-17 -4 -7 -3 -8 4 -4 7 4 12 14 12 22 0 8 4 14 10 14 5 0 7 -6 4 -14 -3 -8 -1
-16 4 -20 5 -3 8 5 7 17 -2 17 -8 21 -26 20 -23 -3 -23 -2 -5 12 11 8 14 15 8
15 -7 0 -11 5 -9 12 1 7 -12 13 -31 15 -18 1 -31 -1 -28 -6 3 -5 -3 -20 -14
-34 -11 -14 -20 -31 -20 -39 0 -7 -7 0 -15 16 -17 33 -20 60 -5 51 6 -4 8 -10
5 -15 -3 -5 -1 -11 4 -14 13 -8 27 15 28 44 1 14 -1 19 -4 13 -7 -20 -26 -15
-19 5 6 16 5 16 -7 0 -8 -10 -18 -14 -22 -10 -5 4 -5 1 -1 -6 5 -7 3 -11 -5
-10 -6 2 -14 -3 -17 -11 -3 -8 0 -11 7 -7 6 4 11 2 11 -4 0 -7 -7 -9 -16 -6
-11 4 -15 2 -11 -8 4 -10 1 -13 -8 -9 -12 4 -11 10 5 33 15 20 18 34 12 51 -7
19 -10 20 -15 6 -7 -19 -27 -23 -27 -6 0 5 5 7 12 3 6 -4 8 -3 5 3 -7 11 16
36 25 28 3 -3 11 3 19 12 13 16 12 17 -3 4 -10 -7 -18 -10 -18 -6 0 4 -7 2
-15 -5 -9 -8 -15 -9 -15 -2 0 6 4 13 10 17 5 3 6 13 3 22 -4 10 -2 14 5 9 6
-3 13 -2 16 3 4 5 -2 8 -11 7 -10 -2 -18 -10 -18 -19 0 -20 -15 -35 -16 -16
-1 8 -1 18 0 22 1 5 -3 6 -9 2 -5 -3 -10 -1 -10 6 0 6 -9 0 -21 -15 -12 -16
-19 -35 -16 -46 3 -11 1 -20 -4 -20 -5 0 -9 12 -9 27 l0 26 -24 -22 c-18 -17
-26 -19 -31 -10 -5 7 -4 10 2 6 6 -4 18 2 28 13 20 22 8 28 -15 8 -12 -11 -12
-10 -2 3 6 9 8 20 4 24 -4 5 4 2 18 -7 25 -15 26 -15 43 14 14 25 20 28 32 18
11 -9 18 -10 28 -1 8 6 18 7 23 3 4 -4 3 0 -4 9 -6 9 -10 18 -7 21 3 2 -2 5
-10 5 -11 0 -12 -4 -4 -13 11 -14 -4 -29 -20 -20 -11 7 -2 46 11 46 5 0 7 4 3
9 -3 6 -14 8 -25 6 -18 -3 -25 6 -21 28 1 5 -3 6 -9 2 -5 -3 -10 -1 -10 4 0 6
-3 11 -8 11 -4 0 -7 -16 -8 -34 0 -19 3 -33 7 -30 5 2 5 12 2 21 -4 11 -3 14
6 9 7 -5 10 -14 7 -22 -3 -7 -1 -16 4 -19 11 -7 8 -25 -9 -50 -12 -19 -12 -19
-7 5 5 23 4 23 -8 7 -10 -12 -15 -14 -18 -6 -3 8 -9 9 -19 4 -17 -11 -44 -16
-34 -7 4 4 12 7 18 7 7 1 11 7 9 13 -2 10 3 10 17 3 10 -6 21 -8 24 -4 9 8
-12 45 -22 38 -5 -2 -14 2 -21 10 -7 8 -9 15 -6 15 4 0 2 10 -5 21 -7 15 -8
19 0 15 7 -5 9 -1 5 11 -5 14 -4 15 4 4 6 -8 8 -21 4 -29 -4 -11 -1 -13 8 -7
8 5 11 4 6 -3 -3 -6 -2 -14 4 -17 7 -4 10 5 8 24 -1 16 -6 27 -10 25 -8 -5
-12 11 -9 30 1 5 -4 4 -12 -2 -20 -17 -30 -2 -11 19 9 10 22 15 30 12 8 -3 14
0 14 6 0 6 7 8 15 5 8 -4 12 -11 8 -17 -4 -6 -1 -7 7 -2 10 6 9 11 -4 21 -11
8 -15 18 -10 26 6 11 5 11 -8 0 -13 -10 -17 -10 -22 3 -3 8 0 15 7 15 7 0 13
9 14 20 2 19 1 19 -18 1 -17 -15 -19 -23 -10 -39 14 -26 14 -35 0 -27 -6 4
-17 -1 -24 -11 -17 -23 -19 -11 -4 18 7 13 7 18 1 14 -6 -3 -14 -1 -18 5 -4 8
-3 9 4 5 6 -3 16 3 22 14 7 13 7 20 0 20 -5 0 -10 6 -10 14 0 22 -19 29 -27
10 -4 -11 1 -22 13 -32 16 -12 16 -14 2 -9 -12 4 -18 1 -18 -8 0 -8 -5 -15
-11 -15 -5 0 -7 5 -3 11 4 7 7 26 8 43 1 20 6 31 16 32 8 1 19 2 24 3 5 0 2 9
-5 19 -13 15 -12 16 3 3 10 -7 16 -17 13 -21 -3 -5 0 -12 6 -16 8 -4 9 -3 5 4
-4 7 -2 12 5 12 7 0 2 11 -11 25 -12 13 -26 22 -31 20 -10 -6 -4 43 6 53 4 4
6 -3 3 -15 -4 -14 1 -28 13 -39 20 -18 21 -16 21 28 1 22 4 26 25 22 14 -3 22
-1 19 4 -3 5 2 9 10 9 11 0 10 -5 -6 -22 -17 -18 -18 -24 -7 -38 11 -16 14
-16 32 -2 20 16 20 16 -2 6 -16 -8 -22 -7 -27 5 -7 19 44 42 85 39 16 -1 29 2
29 7 0 5 5 6 10 3 6 -4 17 -1 25 5 12 10 15 9 15 -5 0 -10 3 -16 6 -12 3 3 3
16 -1 28 -7 22 -8 22 -21 4 -8 -10 -16 -16 -19 -13 -3 3 1 12 9 21 8 8 12 18
8 22 -4 4 0 5 8 3 9 -2 14 3 12 14 -1 9 2 19 8 23 5 3 7 0 4 -8 -6 -17 12 -32
21 -18 3 6 13 7 22 4 10 -4 14 -2 9 5 -3 6 -2 14 4 17 6 4 9 2 8 -3 -2 -6 2
-9 7 -8 6 0 9 5 7 9 -1 5 2 6 8 2 6 -3 8 -9 6 -13 -2 -4 2 -13 10 -20 12 -11
14 -10 11 5 -1 10 -7 25 -12 33 -6 11 -2 10 12 -3 11 -9 23 -14 28 -10z m-269
-68 c-9 -13 -16 -18 -16 -12 0 7 5 15 11 18 6 4 8 14 4 24 -5 12 -3 13 6 4 9
-9 8 -17 -5 -34z m70 16 c-3 -20 -16 -31 -16 -13 0 13 8 28 16 28 1 0 1 -7 0
-15z m500 -21 c-1 -8 -6 -17 -12 -21 -5 -4 -6 -4 -2 1 4 5 3 14 -2 21 -7 8 -5
12 4 12 8 0 13 -6 12 -13z m-679 -46 c-3 -7 -5 -2 -5 12 0 14 2 19 5 13 2 -7
2 -19 0 -25z m686 5 c-4 -11 -3 -14 5 -9 20 12 13 0 -10 -20 -14 -12 -18 -13
-10 -3 6 9 9 19 6 22 -3 3 -3 10 1 16 10 17 15 13 8 -6z m-88 -25 c5 4 5 1 1
-6 -6 -10 -11 -10 -22 -1 -8 6 -14 14 -14 16 0 3 6 0 13 -6 8 -6 18 -7 22 -3z
m112 -6 c-10 -10 -14 -22 -10 -27 5 -4 2 -5 -5 -1 -11 6 -10 12 4 27 9 10 19
19 22 19 3 0 -2 -8 -11 -18z m-782 -54 c5 4 5 1 1 -5 -10 -18 -23 -16 -30 3
-5 13 -4 14 7 6 8 -7 18 -8 22 -4z m-255 -2 c0 -2 -8 -10 -17 -17 -16 -13 -17
-12 -4 4 13 16 21 21 21 13z m132 -21 c3 3 3 -5 1 -18 -3 -14 2 -29 13 -38 10
-8 15 -9 11 -2 -4 6 -3 14 3 18 6 4 7 11 3 18 -4 7 -9 4 -14 -9 -6 -16 -8 -16
-8 -2 -1 20 15 32 24 18 4 -6 10 -8 15 -5 5 3 11 1 14 -4 4 -5 1 -13 -5 -17
-8 -5 -9 -3 -4 7 5 8 4 10 0 6 -14 -12 -15 -37 -2 -34 7 1 11 -4 9 -11 -1 -8
2 -11 8 -7 8 5 8 11 0 20 -8 9 -7 14 4 18 9 4 18 1 22 -5 4 -7 3 -8 -4 -4 -8
5 -10 2 -6 -9 4 -8 0 -23 -7 -33 -12 -16 -12 -16 5 -1 10 9 19 28 19 43 1 14
8 28 16 31 9 4 11 0 7 -11 -3 -9 -3 -21 1 -27 10 -16 11 -47 2 -53 -4 -2 -6
-16 -3 -30 3 -15 1 -23 -5 -20 -5 3 -8 -5 -7 -19 2 -13 -1 -22 -5 -19 -5 3
-10 15 -10 27 -1 20 -2 20 -6 2 -3 -11 -9 -24 -15 -30 -6 -7 -7 -4 -3 6 4 10
0 16 -9 16 -9 0 -13 -8 -10 -20 2 -11 0 -16 -4 -13 -4 4 -7 13 -7 19 0 7 -7
12 -15 12 -8 0 -22 5 -30 10 -12 7 -13 6 -4 -6 11 -13 16 -54 6 -44 -3 3 -12
-1 -20 -8 -13 -9 -14 -9 -8 1 4 6 2 13 -3 13 -33 4 -46 2 -44 -7 1 -6 -4 -11
-12 -11 -8 0 -11 5 -7 11 10 16 11 146 1 146 -5 0 -6 -6 -3 -13 3 -8 -2 -14
-11 -14 -16 0 -20 13 -6 21 4 3 6 18 3 32 -3 18 -1 25 6 20 6 -4 9 -14 6 -24
-5 -13 -4 -14 4 -4 7 11 11 10 17 -5 5 -10 8 -21 7 -24 0 -3 5 -6 13 -6 8 0
14 3 13 6 0 3 1 8 2 11 1 3 3 19 6 35 2 17 4 36 5 42 2 9 6 9 14 3 7 -5 14 -7
17 -5z m-49 -8 c4 3 7 1 7 -5 0 -6 -4 -14 -10 -17 -5 -3 -10 -1 -10 6 0 7 -3
9 -7 6 -3 -4 2 -15 11 -26 11 -12 13 -21 7 -25 -6 -4 -17 7 -26 24 -17 34 -12
58 9 41 7 -6 16 -8 19 -4z m-76 -20 c0 -8 -6 -14 -14 -14 -9 0 -10 4 -2 14 6
7 12 13 14 13 1 0 2 -6 2 -13z m-11 -45 c-2 -4 2 -18 10 -32 7 -14 13 -19 14
-11 0 32 13 -2 16 -44 2 -33 -1 -47 -11 -51 -8 -4 -12 -11 -8 -18 4 -7 1 -7
-7 1 -11 10 -17 10 -29 0 -12 -9 -12 -7 1 8 12 14 14 25 8 35 -8 13 -10 12
-10 -2 0 -9 -4 -20 -10 -23 -6 -4 -7 2 -1 17 6 17 4 26 -8 36 -14 11 -13 12 7
2 17 -8 22 -8 23 2 0 10 2 10 6 0 2 -6 9 -10 13 -7 5 3 4 17 -2 30 -6 13 -14
22 -19 20 -4 -3 -11 0 -15 6 -4 8 -3 9 4 5 7 -4 12 -3 12 3 0 5 -5 13 -10 16
-6 4 -8 11 -4 16 3 5 10 7 15 3 5 -3 7 -9 5 -12z m298 -24 c-1 -13 -3 -23 -4
-23 -7 0 -8 -45 -1 -49 4 -3 7 6 5 20 -1 14 1 23 4 19 4 -4 7 -20 8 -36 0 -21
-3 -26 -12 -18 -8 7 -14 7 -19 -1 -3 -6 -11 -8 -16 -4 -7 4 -6 10 0 18 6 7 9
22 6 34 -2 12 1 24 6 27 5 4 7 11 4 16 -8 11 4 31 14 25 4 -3 7 -15 5 -28z
m-335 -1 c-2 -1 -13 -9 -24 -17 -19 -14 -19 -14 -6 3 7 9 18 17 24 17 6 0 8
-1 6 -3z m-74 -87 c-14 -15 -21 -17 -32 -9 -7 6 -13 14 -13 16 0 3 6 0 14 -6
10 -9 16 -8 26 4 7 8 15 15 18 15 3 0 -3 -9 -13 -20z m45 16 c0 -2 -8 -10 -17
-17 -16 -13 -17 -12 -4 4 13 16 21 21 21 13z m28 -21 c-3 -3 -9 2 -12 12 -6
14 -5 15 5 6 7 -7 10 -15 7 -18z m465 -56 c-6 -6 -9 -1 -7 13 3 33 6 36 11 14
3 -10 1 -22 -4 -27z m-1443 -5 c0 -8 -19 -13 -24 -6 -3 5 1 9 9 9 8 0 15 -2
15 -3z m2072 -16 c-7 -7 -12 -8 -12 -2 0 14 12 26 19 19 2 -3 -1 -11 -7 -17z
m-2255 -33 c0 -8 -4 -12 -9 -9 -5 3 -6 10 -3 15 9 13 12 11 12 -6z m40 0 c0
-8 -4 -12 -9 -9 -9 6 -10 1 -2 -19 5 -13 9 -12 25 4 11 11 24 17 28 14 5 -2
12 2 15 11 6 15 8 15 25 0 11 -10 25 -14 36 -10 13 5 16 4 11 -4 -4 -7 -2 -12
3 -12 6 0 11 3 11 8 0 4 11 7 24 7 20 0 22 -3 13 -14 -10 -11 -9 -13 3 -9 18
6 50 -9 50 -24 0 -6 -9 -3 -19 6 -13 12 -21 14 -26 6 -4 -6 -1 -9 7 -8 7 2 12
-2 11 -9 -4 -19 30 -8 39 13 6 15 7 13 4 -9 -2 -15 0 -30 5 -33 12 -7 -1 -34
-14 -31 -7 1 -15 6 -19 12 -5 6 -11 6 -19 -2 -9 -9 -18 -9 -31 -2 -16 9 -17
13 -6 27 11 15 11 16 -4 4 -10 -8 -18 -9 -22 -3 -4 6 -13 8 -21 4 -9 -3 -15 1
-15 8 0 9 -3 10 -8 3 -13 -19 -40 -23 -58 -9 -18 13 -18 14 0 34 11 12 16 21
13 21 -17 0 -22 -3 -19 -11 1 -5 -4 -8 -10 -6 -7 1 -12 -5 -10 -13 1 -10 -4
-7 -17 7 -10 12 -22 19 -26 15 -9 -8 3 17 18 36 12 15 14 15 14 -3z m1608 -24
c12 -24 12 -32 2 -38 -20 -12 -37 -12 -39 0 -4 35 -3 43 5 55 13 17 14 16 32
-17z m514 -16 c16 14 19 14 31 0 11 -13 8 -20 -4 -12 -2 1 -13 -7 -25 -17 -12
-11 -22 -16 -22 -13 -1 4 -2 11 -3 16 0 5 -4 13 -8 17 -5 4 -8 12 -8 18 0 6 5
3 11 -7 10 -17 12 -17 28 -2z m-1846 -34 c-2 -9 3 -5 12 9 9 14 14 17 11 8 -3
-10 -1 -18 4 -18 6 0 10 6 10 13 0 8 4 7 10 -3 14 -21 12 -33 -6 -56 -15 -18
-15 -18 -5 3 6 12 11 28 10 35 0 10 -2 10 -6 0 -2 -6 -10 -9 -15 -6 -7 4 -8 2
-4 -5 9 -14 -12 -43 -25 -35 -16 10 -9 26 9 20 12 -4 11 -1 -4 9 -15 11 -20
23 -16 41 3 17 7 22 12 13 5 -7 6 -19 3 -28z m1254 7 c-3 -8 -6 -5 -6 6 -1 11
2 17 5 13 3 -3 4 -12 1 -19z m-1146 -5 c7 6 1 -3 -15 -20 -30 -34 -43 -43 -29
-20 11 17 11 30 -1 47 -7 10 -4 9 10 -2 16 -14 23 -15 35 -5z m1799 3 c0 -2
-7 -7 -16 -10 -8 -3 -12 -2 -9 4 6 10 25 14 25 6z m-40 -16 c0 -5 -5 -10 -11
-10 -5 0 -7 5 -4 10 3 6 8 10 11 10 2 0 4 -4 4 -10z m-2001 -23 c0 -9 -2 -9
-5 -1 -3 7 -15 10 -27 8 -21 -4 -21 -4 -2 5 23 10 35 5 34 -12z m1871 -18 c0
-11 -4 -17 -10 -14 -17 10 -11 1 9 -17 19 -16 19 -15 14 20 -6 38 4 41 12 3 2
-11 7 -26 10 -31 3 -6 1 -10 -5 -10 -6 0 -8 -6 -4 -12 5 -10 4 -10 -6 -1 -18
17 -51 -2 -44 -25 4 -10 2 -13 -3 -7 -4 6 -15 10 -23 10 -8 -1 -21 3 -28 9 -8
6 -16 6 -20 0 -11 -14 -42 -16 -42 -3 0 7 3 9 6 6 9 -9 46 12 42 24 -2 6 -7
10 -12 9 -5 -1 -12 4 -16 10 -5 8 -9 7 -13 -3 -4 -11 0 -15 14 -12 10 2 19 0
19 -6 0 -5 -3 -9 -7 -10 -5 0 -17 -2 -28 -4 -17 -3 -20 1 -19 23 0 20 6 27 22
28 12 1 24 2 27 3 10 2 20 -4 18 -11 -2 -4 5 -19 13 -35 13 -23 15 -24 11 -5
-4 15 1 27 16 37 13 9 16 15 8 15 -11 0 -10 5 4 20 20 22 35 18 35 -11z m92 9
c-7 -7 -12 -19 -12 -27 0 -12 6 -9 23 9 12 14 19 21 15 16 -11 -14 -10 -28 1
-22 5 3 15 -2 22 -12 12 -15 12 -16 -1 -6 -13 9 -21 10 -47 5 -5 -1 -1 -6 7
-11 13 -8 13 -10 -2 -11 -35 -3 -39 -4 -48 -19 -8 -12 -10 -9 -8 10 0 14 -1
32 -3 40 -2 8 2 15 9 16 6 1 17 2 23 3 5 0 7 6 3 13 -4 7 -3 8 4 4 7 -4 12 -2
12 5 0 7 3 9 7 6 4 -4 1 -13 -5 -19z m-393 -2 c9 -11 9 -16 -1 -22 -7 -4 -10
-4 -6 1 4 4 3 14 -3 22 -6 7 -9 13 -6 13 2 0 10 -6 16 -14z m48 -29 c-8 -15
-17 -24 -20 -21 -3 4 1 17 10 30 20 32 27 25 10 -9z m40 18 c0 -8 -9 -22 -19
-32 -21 -19 -24 -3 -6 27 15 24 25 26 25 5z m-1059 -19 c6 1 13 2 15 4 9 8 38
6 44 -2 3 -6 1 -8 -4 -5 -14 9 -24 -18 -16 -40 6 -16 5 -16 -11 -4 -12 10 -14
17 -6 25 5 5 10 15 10 21 0 5 -7 1 -15 -9 -8 -10 -12 -22 -10 -27 3 -4 0 -11
-6 -15 -9 -5 -10 1 -5 22 4 16 3 24 -1 18 -5 -8 -14 -3 -27 15 -19 26 -19 26
0 10 10 -8 25 -14 32 -13z m102 20 c0 -2 -8 -10 -17 -17 -16 -13 -17 -12 -4 4
13 16 21 21 21 13z m-172 -26 c-2 -5 2 -9 7 -7 6 1 9 6 7 12 -2 5 6 1 17 -9
23 -20 27 -36 11 -36 -5 0 -10 7 -10 16 0 8 -5 12 -10 9 -6 -4 -7 -12 -3 -18
3 -7 -3 -4 -15 7 -12 10 -19 23 -16 27 7 12 15 11 12 -1z m1016 -16 c9 -24 7
-27 -9 -10 -17 17 -19 26 -6 26 5 0 12 -7 15 -16z m-880 0 c-7 -3 -10 -15 -8
-27 4 -21 4 -21 -5 -2 -10 23 -5 35 12 34 9 0 9 -2 1 -5z m41 -2 c-3 -3 3 -15
12 -26 l18 -21 -24 20 c-22 18 -24 18 -18 2 4 -10 3 -16 -2 -12 -14 8 -9 42 6
42 7 0 11 -3 8 -5z m40 -21 c-6 -5 -25 10 -25 20 0 5 6 4 14 -3 8 -7 12 -15
11 -17z m-241 11 c3 -5 -1 -9 -9 -9 -8 0 -12 4 -9 9 3 4 7 8 9 8 2 0 6 -4 9
-8z m286 -13 c0 -4 -7 -6 -15 -3 -8 4 -15 10 -15 15 0 4 7 6 15 3 8 -4 15 -10
15 -15z m-4492 -804 c52 -38 57 -52 34 -104 l-19 -42 -26 30 c-14 17 -31 31
-37 31 -6 0 -8 5 -5 10 3 6 2 10 -4 10 -5 0 -8 9 -6 20 2 11 -1 20 -7 20 -6 0
-8 3 -5 6 3 4 2 16 -4 27 -8 14 -8 18 0 13 6 -4 11 0 11 9 0 18 4 16 68 -30z
m-136 -7 c-5 -19 -7 -20 -10 -5 -2 9 -8 15 -13 12 -5 -4 -9 -1 -9 4 0 6 9 11
19 11 15 0 18 -5 13 -22z m21 -21 c-4 -7 -8 -15 -8 -19 0 -16 -13 -17 -26 -1
-7 10 -9 15 -5 11 12 -10 37 12 29 25 -3 6 -1 7 6 3 6 -4 8 -13 4 -19z m445
-47 c23 -12 45 -26 48 -31 3 -5 9 -7 13 -5 4 3 8 -7 9 -22 1 -21 0 -24 -8 -12
-8 12 -10 12 -10 -5 0 -17 -2 -17 -10 -5 -9 13 -10 13 -10 0 0 -13 -1 -13 -10
0 -5 8 -10 10 -10 4 0 -15 -40 -10 -51 7 -5 8 -9 10 -9 6 0 -10 -22 11 -39 38
l-13 20 6 -20 c6 -19 5 -19 -7 -3 -8 10 -16 15 -19 12 -4 -3 -9 -1 -12 4 -3 5
2 16 11 23 12 10 14 10 9 2 -10 -17 2 -16 19 1 8 7 11 17 7 20 -10 10 36 -8
86 -34z m5243 -1087 c7 -7 5 -14 -6 -23 -8 -7 -15 -9 -15 -4 0 5 -5 2 -10 -6
-8 -12 -10 -12 -10 -1 0 11 -3 11 -16 1 -12 -11 -15 -11 -12 1 2 8 -3 13 -12
11 -8 -2 -13 -1 -10 1 3 3 9 6 13 6 4 0 14 7 22 15 16 16 39 16 56 -1z"/>
<path d="M14634 24901 c-3 -3 -20 -6 -36 -6 -19 0 -33 -6 -35 -15 -4 -13 -3
-13 6 0 9 13 15 8 12 -12 0 -3 7 -5 17 -3 22 3 44 -14 35 -28 -3 -6 -1 -7 6
-3 9 6 9 11 1 21 -7 9 -6 16 7 26 15 12 16 12 10 -3 -3 -10 -2 -20 4 -23 5 -4
9 -3 8 2 -1 4 -1 15 0 23 1 13 3 13 10 0 6 -8 8 -17 6 -20 -2 -4 2 -7 10 -7 8
0 14 3 13 6 0 3 0 13 2 21 1 11 4 9 9 -5 5 -11 5 -25 0 -31 -5 -7 -3 -11 6
-11 7 0 13 3 13 6 -1 3 2 14 7 24 4 10 5 21 1 24 -3 4 -6 -2 -7 -13 0 -18 -1
-18 -8 1 -5 11 -13 21 -20 21 -6 1 -12 3 -13 4 -7 5 -58 6 -64 1z m8 -13 c-14
-14 -44 -20 -36 -7 3 5 9 7 14 4 5 -3 11 -1 15 5 3 5 9 10 13 10 3 0 1 -5 -6
-12z m56 -13 c-3 -3 -9 2 -12 12 -6 14 -5 15 5 6 7 -7 10 -15 7 -18z"/>
<path d="M11770 19670 c-14 -3 -32 -9 -41 -15 -9 -5 -109 -165 -221 -355 -113
-190 -276 -464 -363 -610 -87 -146 -213 -357 -280 -470 -142 -239 -632 -1061
-813 -1365 -69 -115 -187 -313 -262 -440 -143 -240 -512 -859 -962 -1615 -146
-245 -320 -537 -388 -650 -126 -212 -138 -243 -111 -293 29 -55 -71 -52 1776
-52 1393 0 1717 2 1736 13 58 31 54 -189 57 2887 2 1557 0 2849 -3 2872 -10
67 -62 107 -125 93z"/>
<path d="M6168 16515 c-6 -14 -18 -25 -27 -25 -10 0 -7 -5 9 -13 25 -14 45
-12 23 1 -8 5 -9 13 -3 22 7 11 10 12 10 2 0 -7 5 -10 11 -6 8 4 7 9 -2 15
-12 8 -11 11 1 19 10 7 11 10 2 10 -7 0 -18 -11 -24 -25z"/>
<path d="M6112 16440 c0 -14 2 -19 5 -12 2 6 2 18 0 25 -3 6 -5 1 -5 -13z"/>
<path d="M6235 16453 c3 -7 -3 -17 -14 -22 -14 -8 -20 -8 -23 1 -3 7 -7 6 -11
-5 -4 -10 -2 -16 6 -14 7 1 11 -7 9 -18 -2 -16 -1 -17 7 -5 5 8 7 18 5 22 -6
10 10 11 19 1 4 -3 1 -13 -6 -21 -8 -11 -9 -14 0 -9 6 4 16 0 21 -9 8 -15 10
-15 15 0 4 9 3 15 -1 13 -4 -1 -7 3 -7 8 0 6 7 9 17 9 10 -1 14 4 11 12 -3 8
-10 14 -15 14 -6 0 -17 8 -25 18 -8 9 -12 12 -8 5z"/>
<path d="M6320 16440 c0 -5 5 -10 11 -10 5 0 7 5 4 10 -3 6 -8 10 -11 10 -2 0
-4 -4 -4 -10z"/>
<path d="M6086 16393 c-6 -14 -5 -15 5 -6 7 7 10 15 7 18 -3 3 -9 -2 -12 -12z"/>
<path d="M6213 16353 c0 -9 4 -10 14 -2 7 6 13 12 13 14 0 1 -6 2 -13 2 -8 0
-14 -6 -14 -14z"/>
<path d="M6560 16346 c0 -2 8 -10 18 -17 15 -13 16 -12 3 4 -13 16 -21 21 -21
13z"/>
<path d="M6600 16306 c0 -2 8 -10 18 -17 15 -13 16 -12 3 4 -13 16 -21 21 -21
13z"/>
<path d="M6646 16148 c3 -5 10 -6 15 -3 13 9 11 12 -6 12 -8 0 -12 -4 -9 -9z"/>
<path d="M6000 16106 c0 -8 5 -18 10 -21 6 -3 10 1 10 9 0 8 -4 18 -10 21 -5
3 -10 -1 -10 -9z"/>
<path d="M6035 16080 c6 -8 10 -19 10 -24 0 -5 6 -10 13 -12 7 -1 8 0 2 3 -5
2 -8 8 -5 13 3 4 -3 14 -12 21 -15 12 -16 12 -8 -1z"/>
<path d="M6511 15922 c-1 -8 -6 -10 -13 -6 -8 5 -7 1 2 -10 15 -19 26 -7 17
17 -4 9 -6 9 -6 -1z"/>
<path d="M6215 15880 c-10 -11 -15 -20 -12 -20 4 0 16 9 27 20 11 11 16 20 12
20 -5 0 -17 -9 -27 -20z"/>
<path d="M6247 15855 c-4 -8 -3 -16 1 -19 4 -3 9 4 9 15 2 23 -3 25 -10 4z"/>
<path d="M6270 15846 c0 -2 8 -10 18 -17 15 -13 16 -12 3 4 -13 16 -21 21 -21
13z"/>
<path d="M18294 14179 c-2 -4 0 -10 6 -14 5 -3 10 -3 10 1 0 3 8 0 18 -7 15
-12 16 -12 5 2 -7 9 -11 18 -8 21 3 2 -2 5 -10 5 -9 0 -18 -4 -21 -8z"/>
<path d="M18356 14143 c-6 -14 -5 -15 5 -6 7 7 10 15 7 18 -3 3 -9 -2 -12 -12z"/>
<path d="M18151 14129 c-1 -9 7 -23 17 -30 15 -12 16 -12 6 1 -6 8 -14 22 -17
30 -5 13 -6 12 -6 -1z"/>
<path d="M10290 10312 c0 -12 19 -26 26 -19 2 2 -2 10 -11 17 -9 8 -15 8 -15
2z"/>
<path d="M10111 10269 c-1 -9 7 -23 17 -30 15 -12 16 -12 6 1 -6 8 -14 22 -17
30 -5 13 -6 12 -6 -1z"/>
<path d="M10533 10005 c0 -8 4 -12 9 -9 5 3 6 10 3 15 -9 13 -12 11 -12 -6z"/>
<path d="M10111 9814 c-1 -24 24 -51 33 -35 4 5 2 12 -4 16 -5 3 -10 3 -11 -2
-1 -4 -5 3 -9 17 -7 22 -8 23 -9 4z"/>
<path d="M10410 10205 c0 -2 6 -8 13 -14 10 -8 14 -7 14 2 0 8 -6 14 -14 14
-7 0 -13 -1 -13 -2z"/>
<path d="M24826 10011 c-4 -5 -2 -12 3 -15 5 -4 12 -2 15 3 4 5 2 12 -3 15 -5
4 -12 2 -15 -3z"/>
<path d="M24810 9599 c0 -5 -4 -7 -10 -4 -14 9 -12 -1 3 -13 10 -8 13 -6 14 9
1 10 0 19 -3 19 -2 0 -4 -5 -4 -11z"/>
<path d="M17350 8491 c0 -5 5 -13 10 -16 6 -3 10 -2 10 4 0 5 -4 13 -10 16 -5
3 -10 2 -10 -4z"/>
<path d="M17183 8384 c-5 -11 -8 -25 -7 -31 1 -7 2 -18 3 -25 1 -7 8 -5 20 6
20 18 22 39 4 57 -8 8 -14 6 -20 -7z m14 -26 c2 -17 0 -19 -7 -8 -5 8 -6 18
-4 22 8 12 10 10 11 -14z"/>
<path d="M17076 8391 c-4 -5 -2 -12 3 -15 5 -4 12 -2 15 3 4 5 2 12 -3 15 -5
4 -12 2 -15 -3z"/>
<path d="M24446 8338 c3 -5 10 -6 15 -3 13 9 11 12 -6 12 -8 0 -12 -4 -9 -9z"/>
<path d="M19540 7891 c0 -6 4 -12 8 -15 5 -3 9 1 9 9 0 8 -4 15 -9 15 -4 0 -8
-4 -8 -9z"/>
<path d="M20735 7000 c-3 -5 -1 -10 4 -10 6 0 11 5 11 10 0 6 -2 10 -4 10 -3
0 -8 -4 -11 -10z"/>
<path d="M21057 6998 c7 -8 9 -19 5 -23 -4 -5 -2 -5 5 -2 6 4 14 1 16 -5 4 -9
6 -8 6 2 1 8 -9 21 -21 29 -20 13 -22 12 -11 -1z"/>
<path d="M21240 6940 c6 -11 13 -20 16 -20 2 0 0 9 -6 20 -6 11 -13 20 -16 20
-2 0 0 -9 6 -20z"/>
<path d="M21265 6911 c-9 -15 15 -25 28 -12 9 9 7 10 -7 5 -13 -5 -17 -4 -12
4 4 7 5 12 2 12 -3 0 -7 -4 -11 -9z"/>
<path d="M21281 6824 c0 -11 3 -14 6 -6 3 7 2 16 -1 19 -3 4 -6 -2 -5 -13z"/>
<path d="M20431 6797 c-8 -10 -7 -14 2 -14 8 0 14 6 14 14 0 7 -1 13 -2 13 -2
0 -8 -6 -14 -13z"/>
<path d="M21247 6683 c5 -12 7 -12 14 -1 7 10 9 10 9 -2 0 -9 -5 -21 -11 -27
-16 -16 6 -26 30 -14 13 7 21 7 23 1 2 -6 9 -1 15 9 11 17 10 19 -8 16 -11 -2
-17 -1 -15 4 3 4 1 13 -3 20 -6 8 -10 3 -14 -18 -4 -17 -12 -31 -18 -31 -8 0
-8 4 1 15 15 18 9 37 -12 41 -11 1 -15 -3 -11 -13z"/>
<path d="M21169 6563 c-13 -16 -12 -17 4 -4 16 13 21 21 13 21 -2 0 -10 -8
-17 -17z"/>
<path d="M21185 6551 c-3 -5 -2 -12 3 -15 5 -3 9 1 9 9 0 17 -3 19 -12 6z"/>
<path d="M20194 6433 c2 -10 6 -17 10 -16 15 3 16 11 2 22 -12 10 -14 9 -12
-6z"/>
<path d="M21216 6492 c-3 -5 1 -9 9 -9 8 0 15 4 15 9 0 4 -4 8 -9 8 -6 0 -12
-4 -15 -8z"/>
<path d="M16980 3531 c0 -6 4 -13 10 -16 6 -3 7 1 4 9 -7 18 -14 21 -14 7z"/>
<path d="M17096 3507 c3 -10 9 -15 12 -12 3 3 0 11 -7 18 -10 9 -11 8 -5 -6z"/>
<path d="M16685 3473 c-13 -29 -14 -43 -4 -49 5 -3 8 0 7 8 -2 7 5 12 15 12
20 -2 23 19 3 35 -11 9 -15 8 -21 -6z"/>
<path d="M17034 3422 c0 -9 -5 -16 -12 -14 -8 1 -11 -2 -7 -8 5 -8 13 -6 26 6
23 20 23 20 5 27 -8 3 -13 -1 -12 -11z"/>
<path d="M16571 3286 c-9 -10 -9 -16 -1 -21 6 -4 14 -4 17 -1 4 3 0 6 -8 6
-10 1 -8 5 5 15 11 8 15 15 9 15 -6 0 -16 -6 -22 -14z"/>
<path d="M16743 3255 c0 -8 4 -12 9 -9 5 3 6 10 3 15 -9 13 -12 11 -12 -6z"/>
<path d="M9270 3491 c0 -5 5 -13 10 -16 6 -3 10 -2 10 4 0 5 -4 13 -10 16 -5
3 -10 2 -10 -4z"/>
<path d="M9351 3481 c-8 -5 -9 -11 -3 -15 5 -3 12 1 16 9 6 17 6 18 -13 6z"/>
<path d="M9420 3476 c0 -8 4 -17 9 -20 5 -4 7 3 4 14 -6 23 -13 26 -13 6z"/>
<path d="M9205 3449 c-4 -6 -5 -12 -2 -15 2 -3 7 2 10 11 7 17 1 20 -8 4z"/>
<path d="M9253 3383 c4 -3 1 -13 -6 -22 -11 -14 -10 -14 5 -2 16 12 16 31 1
31 -4 0 -3 -3 0 -7z"/>
<path d="M10460 3175 c-11 -13 -11 -18 0 -28 10 -9 11 -9 6 1 -4 7 -2 19 4 27
7 8 10 15 7 15 -2 0 -10 -7 -17 -15z"/>
<path d="M9871 3161 c-8 -5 -9 -11 -3 -15 5 -3 15 1 22 9 14 16 3 20 -19 6z"/>
<path d="M12760 3073 c8 -12 17 -20 21 -17 4 2 10 0 14 -6 4 -6 11 -8 16 -4 5
3 7 10 4 15 -4 5 -1 9 4 9 6 0 11 -5 11 -12 0 -6 2 -9 5 -6 10 10 -7 38 -19
31 -19 -12 -40 -12 -55 0 -12 10 -12 9 -1 -10z"/>
<path d="M12653 3060 c-3 -11 -9 -17 -14 -14 -5 3 -6 10 -3 16 4 7 2 8 -5 4
-9 -6 -9 -11 0 -22 6 -7 15 -12 19 -9 9 5 20 45 13 45 -3 0 -7 -9 -10 -20z"/>
<path d="M12679 3063 c-7 -10 -9 -15 -5 -11 5 4 15 3 21 -2 9 -7 16 -6 24 4 8
10 9 16 1 21 -6 4 -9 3 -8 -2 2 -4 -1 -9 -7 -10 -5 -2 -9 2 -7 7 3 15 -4 12
-19 -7z"/>
<path d="M12850 3055 c-6 -16 -14 -23 -22 -19 -7 4 -8 3 -4 -5 10 -15 36 4 37
28 0 12 2 11 9 -4 7 -16 9 -17 9 -3 1 29 -18 31 -29 3z"/>
<path d="M12893 3058 c3 -10 2 -20 -3 -23 -10 -6 -7 -31 5 -42 4 -4 5 -3 1 4
-3 6 -2 14 4 18 5 3 10 0 10 -7 0 -10 2 -10 9 0 11 18 22 17 33 -2 5 -9 13
-14 18 -11 5 3 11 1 14 -4 6 -10 46 -3 46 8 0 10 -20 37 -20 27 0 -5 -9 -1
-20 9 -18 16 -20 16 -26 1 -8 -21 -25 -10 -18 12 5 13 4 14 -4 3 -8 -11 -11
-11 -15 0 -5 11 -6 10 -4 -1 1 -8 -3 -15 -8 -15 -5 0 -10 6 -12 13 -1 8 -5 17
-9 20 -4 4 -4 -1 -1 -10z m91 -34 c3 -8 2 -12 -4 -9 -6 3 -10 1 -10 -6 0 -7
-2 -10 -5 -7 -5 5 4 38 10 38 2 0 6 -7 9 -16z m36 -18 c0 -2 -7 -7 -16 -10 -8
-3 -12 -2 -9 4 6 10 25 14 25 6z"/>
<path d="M12753 3035 c0 -8 4 -12 9 -9 5 3 6 10 3 15 -9 13 -12 11 -12 -6z"/>
<path d="M12851 3017 c-8 -10 -7 -14 2 -14 8 0 14 6 14 14 0 7 -1 13 -2 13 -2
0 -8 -6 -14 -13z"/>
<path d="M12423 2985 c-3 -9 -3 -19 1 -22 3 -3 1 -12 -5 -20 -9 -10 -5 -16 20
-26 17 -7 28 -17 24 -21 -5 -5 2 -3 14 4 11 8 19 19 16 27 -3 7 -9 10 -14 7
-5 -3 -7 -10 -4 -15 4 -5 4 -9 1 -9 -10 0 -47 70 -41 80 3 5 4 10 0 10 -3 0
-8 -7 -12 -15z m17 -45 c0 -5 -5 -10 -11 -10 -5 0 -7 5 -4 10 3 6 8 10 11 10
2 0 4 -4 4 -10z"/>
<path d="M12506 2952 c-2 -4 -1 -14 4 -22 7 -11 9 -9 7 8 -1 24 -3 26 -11 14z"/>
<path d="M12420 2899 c0 -5 5 -7 10 -4 6 3 10 8 10 11 0 2 -4 4 -10 4 -5 0
-10 -5 -10 -11z"/>
<path d="M13140 2881 c0 -6 4 -13 10 -16 6 -3 7 1 4 9 -7 18 -14 21 -14 7z"/>
<path d="M12396 2868 c3 -5 10 -6 15 -3 13 9 11 12 -6 12 -8 0 -12 -4 -9 -9z"/>
<path d="M12453 2853 c0 -9 4 -10 14 -2 7 6 13 12 13 14 0 1 -6 2 -13 2 -8 0
-14 -6 -14 -14z"/>
<path d="M12460 2820 c0 -5 7 -10 16 -10 8 0 12 5 9 10 -3 6 -10 10 -16 10 -5
0 -9 -4 -9 -10z"/>
<path d="M13224 2789 c-3 -6 -2 -15 4 -21 6 -6 9 -16 8 -22 -2 -6 -1 -8 1 -5
2 4 12 5 22 2 13 -3 17 1 16 14 -2 38 -34 58 -51 32z m34 -8 c11 -7 11 -9 -1
-14 -16 -6 -27 0 -27 15 0 10 11 10 28 -1z"/>
<path d="M12736 2772 c-3 -5 1 -9 9 -9 8 0 12 4 9 9 -3 4 -7 8 -9 8 -2 0 -6
-4 -9 -8z"/>
<path d="M12424 2759 c-4 -7 -3 -9 4 -5 5 3 13 0 15 -6 4 -9 6 -10 6 -1 1 17
-16 25 -25 12z"/>
<path d="M12490 2705 c0 -8 4 -15 10 -15 5 0 7 7 4 15 -4 8 -8 15 -10 15 -2 0
-4 -7 -4 -15z"/>
<path d="M12571 2646 c-8 -10 -9 -16 -1 -21 5 -3 10 -5 11 -3 4 18 7 38 4 38
-1 0 -8 -6 -14 -14z"/>
<path d="M12450 2640 c0 -5 5 -10 11 -10 5 0 7 5 4 10 -3 6 -8 10 -11 10 -2 0
-4 -4 -4 -10z"/>
<path d="M12580 2500 c-9 -6 -10 -10 -3 -10 6 0 15 5 18 10 8 12 4 12 -15 0z"/>
<path d="M12177 2850 c-3 -11 -2 -22 2 -24 4 -3 8 6 9 20 2 29 -4 31 -11 4z"/>
<path d="M12133 2753 c0 -9 4 -10 14 -2 7 6 13 12 13 14 0 1 -6 2 -13 2 -8 0
-14 -6 -14 -14z"/>
<path d="M12143 2733 c-15 -5 -18 -49 -4 -57 4 -3 6 6 3 21 -3 15 -1 24 5 20
5 -3 10 0 10 8 0 8 -1 15 -1 14 -1 0 -7 -3 -13 -6z"/>
<path d="M12166 2679 c21 -23 23 -23 20 -2 -2 9 -11 17 -20 19 -17 2 -17 2 0
-17z"/>
<path d="M12085 2710 c-4 -6 -11 -7 -17 -4 -6 4 -6 0 1 -13 6 -11 7 -24 3 -29
-4 -5 1 -3 10 4 9 8 16 22 15 33 -1 22 -3 23 -12 9z"/>
<path d="M10970 2570 c0 -5 5 -10 11 -10 5 0 7 5 4 10 -3 6 -8 10 -11 10 -2 0
-4 -4 -4 -10z"/>
<path d="M10946 2511 c-3 -5 0 -11 7 -14 8 -3 14 1 14 9 0 16 -13 19 -21 5z"/>
<path d="M12490 2553 c5 -2 10 -9 10 -14 0 -6 -4 -7 -10 -4 -15 9 -12 -1 4
-14 10 -9 13 -7 12 11 0 12 -7 23 -14 24 -7 1 -8 0 -2 -3z"/>
<path d="M13024 2518 c-19 -23 -19 -23 2 -5 11 9 24 14 29 10 4 -5 5 -2 1 5
-9 16 -10 16 -32 -10z"/>
<path d="M12879 2418 c-1 -2 -3 -13 -4 -26 -2 -18 0 -20 11 -11 16 13 19 39 4
39 -5 0 -11 -1 -11 -2z"/>
<path d="M12966 2426 c6 -15 34 -30 34 -18 0 12 -14 27 -27 29 -7 2 -10 -3 -7
-11z"/>
<path d="M12871 407 c-8 -10 -7 -14 2 -14 8 0 14 6 14 14 0 7 -1 13 -2 13 -2
0 -8 -6 -14 -13z"/>
<path d="M12903 405 c0 -8 4 -12 9 -9 5 3 6 10 3 15 -9 13 -12 11 -12 -6z"/>
<path d="M16173 24808 c-13 -6 -23 -15 -23 -21 0 -5 6 -4 14 2 12 10 14 8 12
-12 -4 -34 26 -29 35 6 10 38 1 44 -38 25z"/>
<path d="M16210 24739 c0 -5 -4 -7 -10 -4 -14 9 -12 -1 3 -13 10 -8 13 -6 14
9 1 10 0 19 -3 19 -2 0 -4 -5 -4 -11z"/>
<path d="M2854 20638 l-29 -33 33 29 c30 28 37 36 29 36 -2 0 -16 -15 -33 -32z"/>
<path d="M1016 17485 c-3 -9 -6 -22 -5 -28 0 -7 5 -1 10 12 5 13 8 26 5 28 -2
2 -6 -3 -10 -12z"/>
<path d="M1380 17466 c0 -2 8 -10 18 -17 15 -13 16 -12 3 4 -13 16 -21 21 -21
13z"/>
<path d="M908 16486 c4 -6 7 -14 7 -18 0 -19 11 -14 11 6 0 12 -6 23 -13 23
-6 0 -9 -5 -5 -11z"/>
<path d="M955 16250 c-4 -6 -12 -7 -18 -4 -7 4 -9 4 -5 -1 4 -4 2 -15 -5 -24
-10 -14 -10 -14 5 -3 10 8 19 9 22 3 3 -5 0 -12 -6 -14 -10 -4 -10 -6 0 -6 7
-1 11 -5 7 -10 -3 -5 0 -13 6 -17 7 -4 9 -3 6 3 -4 6 0 16 9 23 8 7 13 19 10
26 -3 7 0 15 7 18 7 3 1 3 -12 0 -16 -4 -21 -3 -17 5 4 6 5 11 2 11 -3 0 -8
-5 -11 -10z m25 -30 c0 -5 -6 -12 -12 -16 -7 -4 -10 -4 -6 1 4 4 3 14 -4 22
-8 11 -7 12 6 7 9 -3 16 -10 16 -14z"/>
<path d="M913 16067 c-3 -6 -1 -7 5 -3 5 3 12 1 14 -6 3 -8 6 -7 10 3 7 17
-19 22 -29 6z"/>
<path d="M770 16013 c0 -6 -15 -9 -36 -7 -20 2 -34 1 -31 -3 10 -10 67 -11 73
-1 3 5 3 12 0 15 -3 4 -6 2 -6 -4z"/>
<path d="M24225 8009 c-4 -6 -5 -12 -2 -15 2 -3 7 2 10 11 7 17 1 20 -8 4z"/>
<path d="M24069 7766 c-1 -1 -2 -14 -3 -29 -3 -33 7 -42 25 -21 7 8 8 14 2 12
-6 -2 -11 2 -11 7 0 6 3 9 7 8 4 -1 8 4 8 11 0 10 -20 18 -28 12z"/>
<path d="M24227 7676 c-3 -8 2 -20 11 -27 14 -11 15 -11 5 0 -6 7 -9 20 -6 27
3 8 3 14 0 14 -3 0 -7 -6 -10 -14z"/>
<path d="M24137 7634 c-3 -3 -2 -16 2 -28 6 -18 7 -61 1 -68 -7 -9 -7 -37 0
-33 5 3 14 -4 20 -15 8 -15 7 -25 -5 -43 -13 -20 -13 -24 0 -24 8 0 12 3 10 6
-4 8 22 57 29 54 3 -2 5 -1 4 0 -2 2 4 12 12 23 14 18 14 18 -4 4 -18 -14 -19
-13 -13 4 6 15 5 17 -6 8 -19 -16 -30 -3 -14 16 8 11 8 14 0 9 -6 -4 -14 -3
-18 3 -3 5 0 10 7 10 9 0 9 3 -2 10 -13 9 -13 10 0 10 12 0 12 2 2 9 -7 4 -14
18 -15 29 -1 25 -1 24 -10 16z m20 -101 c-4 -3 -1 -13 6 -22 11 -14 10 -14 -5
-2 -16 12 -16 31 -1 31 4 0 3 -3 0 -7z m37 -41 c3 -5 -1 -9 -9 -9 -8 0 -12 4
-9 9 3 4 7 8 9 8 2 0 6 -4 9 -8z"/>
<path d="M24204 7596 c1 -14 4 -28 7 -31 3 -3 5 6 5 19 -1 14 -4 28 -7 31 -3
3 -5 -6 -5 -19z"/>
</g>
</svg>
